<?xml version="1.0" encoding="UTF-8"?>
<svg width="92px" height="80px" viewBox="0 0 92 80" version="1.1" xmlns="http://www.w3.org/2000/svg" xmlns:xlink="http://www.w3.org/1999/xlink">
    <!-- Generator: Sketch 49 (51002) - http://www.bohemiancoding.com/sketch -->
    <title>chat</title>
    <desc>Created with Sketch.</desc>
    <defs></defs>
    <g id="Page-1" stroke="none" stroke-width="1" fill="none" fill-rule="evenodd">
        <g id="expert" transform="translate(-1075.000000, -1683.000000)" fill="#5191FA" fill-rule="nonzero">
            <g id="why" transform="translate(135.000000, 1547.000000)">
                <g id="1" transform="translate(1.000000, 86.000000)">
                    <g transform="translate(800.000000, 0.000000)" id="Group-2">
                        <g>
                            <g id="chat" transform="translate(139.000000, 50.000000)">
                                <path d="M70.3632287,25.9081614 L14.286278,25.9081614 C13.543139,25.9081614 12.9409865,26.5104933 12.9409865,27.2534529 C12.9409865,27.9964126 13.543139,28.5987444 14.286278,28.5987444 L70.3632287,28.5987444 C71.1063677,28.5987444 71.7085202,27.9964126 71.7085202,27.2534529 C71.7085202,26.5104933 71.1063677,25.9081614 70.3632287,25.9081614 Z" id="Shape"></path>
                                <path d="M50.2330045,18.7187444 L14.286278,18.7187444 C13.543139,18.7187444 12.9409865,19.3210762 12.9409865,20.0640359 C12.9409865,20.8069955 13.543139,21.4093274 14.286278,21.4093274 L50.2330045,21.4093274 C50.9761435,21.4093274 51.578296,20.8069955 51.578296,20.0640359 C51.578296,19.3208969 50.9761435,18.7187444 50.2330045,18.7187444 Z" id="Shape"></path>
                                <path d="M70.3630493,18.7187444 L55.9843946,18.7187444 C55.2412556,18.7187444 54.6391031,19.3210762 54.6391031,20.0640359 C54.6391031,20.8069955 55.2412556,21.4093274 55.9843946,21.4093274 L70.3630493,21.4093274 C71.1061883,21.4093274 71.7083408,20.8069955 71.7083408,20.0640359 C71.7083408,19.3208969 71.1061883,18.7187444 70.3630493,18.7187444 Z" id="Shape"></path>
                                <path d="M32.9784753,33.0973991 L14.286278,33.0973991 C13.543139,33.0973991 12.9409865,33.6997309 12.9409865,34.4426906 C12.9409865,35.1856502 13.543139,35.7879821 14.286278,35.7879821 L32.9784753,35.7879821 C33.7216143,35.7879821 34.3237668,35.1856502 34.3237668,34.4426906 C34.3237668,33.6999103 33.7216143,33.0973991 32.9784753,33.0973991 Z" id="Shape"></path>
                                <path d="M70.3630493,33.0973991 L41.6050224,33.0973991 C40.8618834,33.0973991 40.2597309,33.6997309 40.2597309,34.4426906 C40.2597309,35.1856502 40.8618834,35.7879821 41.6050224,35.7879821 L70.3630493,35.7879821 C71.1061883,35.7879821 71.7083408,35.1856502 71.7083408,34.4426906 C71.7083408,33.6999103 71.1061883,33.0973991 70.3630493,33.0973991 Z" id="Shape"></path>
                                <path d="M21.4756951,11.5293274 L14.286278,11.5293274 C13.543139,11.5293274 12.9409865,12.1316592 12.9409865,12.8746188 C12.9409865,13.6175785 13.5433184,14.2199103 14.286278,14.2199103 L21.4756951,14.2199103 C22.2188341,14.2199103 22.8209865,13.6175785 22.8209865,12.8746188 C22.8209865,12.1318386 22.2188341,11.5293274 21.4756951,11.5293274 Z" id="Shape"></path>
                                <path d="M70.3632287,11.5293274 L27.2276233,11.5293274 C26.4844843,11.5293274 25.8823318,12.1316592 25.8823318,12.8746188 C25.8823318,13.6175785 26.4844843,14.2199103 27.2276233,14.2199103 L70.3632287,14.2199103 C71.1063677,14.2199103 71.7085202,13.6175785 71.7085202,12.8746188 C71.7085202,12.1318386 71.1063677,11.5293274 70.3632287,11.5293274 Z" id="Shape"></path>
                                <path d="M55.9840359,40.2871749 L14.286278,40.2871749 C13.543139,40.2871749 12.9409865,40.8895067 12.9409865,41.6324664 C12.9409865,42.375426 13.543139,42.9777578 14.286278,42.9777578 L55.9840359,42.9777578 C56.7271749,42.9777578 57.3293274,42.375426 57.3293274,41.6324664 C57.3293274,40.8893274 56.7271749,40.2871749 55.9840359,40.2871749 Z" id="Shape"></path>
                                <path d="M70.3632287,40.2871749 L61.735426,40.2871749 C60.992287,40.2871749 60.3901345,40.8895067 60.3901345,41.6324664 C60.3901345,42.375426 60.992287,42.9777578 61.735426,42.9777578 L70.3632287,42.9777578 C71.1063677,42.9777578 71.7085202,42.375426 71.7085202,41.6324664 C71.7085202,40.8893274 71.1063677,40.2871749 70.3632287,40.2871749 Z" id="Shape"></path>
                                <path d="M84.7418834,8.65363229 L83.2114798,8.65363229 L83.2114798,7.1232287 C83.2114798,3.21004484 80.0279821,0.0265470852 76.1147982,0.0265470852 L7.09668161,0.0265470852 C3.18367713,0.0265470852 0,3.21004484 0,7.12304933 L0,47.3834978 C0,51.2966816 3.18367713,54.4801794 7.09668161,54.4801794 L8.6270852,54.4801794 L8.6270852,56.010583 C8.6270852,59.9237668 11.8107623,63.1072646 15.7237668,63.1072646 L26.4206278,63.1072646 L25.3069058,67.9332735 C25.0469955,69.0588341 25.4957848,70.2069955 26.4500448,70.8581166 C26.9266368,71.1833184 27.4726457,71.346009 28.0186547,71.3458296 C28.5659193,71.3458296 29.1131839,71.1824215 29.5903139,70.8561435 L39.6145291,63.9974888 L62.2478924,79.4832287 C62.7250224,79.8098655 63.272287,79.9730942 63.8195516,79.9730942 C64.3655605,79.9730942 64.9115695,79.810583 65.3881614,79.4853812 C66.3424215,78.8342601 66.7912108,77.6860987 66.5313004,76.5605381 L63.4267265,63.1072646 L84.7415247,63.1072646 C88.6547085,63.1072646 91.8382063,59.9235874 91.8382063,56.010583 L91.8382063,15.7504933 C91.838565,11.8373094 88.6550673,8.65363229 84.7418834,8.65363229 Z M15.7239462,60.4172197 C13.2943498,60.4170404 11.3178475,58.4403587 11.3178475,56.0109417 L11.3178475,54.4805381 L28.4116592,54.4805381 L27.0417937,60.4172197 L15.7239462,60.4172197 Z M28.0710314,68.6360538 C28.0432287,68.6552466 28.0191928,68.6719283 27.9666368,68.6360538 C27.9144395,68.6003587 27.9210762,68.5720179 27.9286099,68.5388341 L31.4134529,53.4376682 C31.5058296,53.0382063 31.410583,52.6184753 31.1555157,52.2977578 C30.9002691,51.976861 30.5126457,51.7899552 30.1027803,51.7899552 L7.09668161,51.7899552 C4.66726457,51.7895964 2.69058296,49.8130942 2.69058296,47.3836771 L2.69058296,7.12304933 C2.69058296,4.69345291 4.66726457,2.71695067 7.09668161,2.71695067 L76.1144395,2.71695067 C78.5440359,2.71695067 80.5205381,4.69363229 80.5205381,7.12304933 L80.5205381,47.3834978 C80.5205381,49.8130942 78.5438565,51.7895964 76.1144395,51.7895964 L53.1086996,51.7895964 C52.8374888,51.7895964 52.5729148,51.8715695 52.3490583,52.024574 L28.0710314,68.6360538 Z M84.7418834,60.4166816 L61.7359641,60.4166816 C61.3260987,60.4166816 60.9384753,60.6035874 60.6832287,60.9244843 C60.4279821,61.2453812 60.3329148,61.6649327 60.4252915,62.0643946 L63.9101345,77.1655605 C63.9176682,77.198565 63.9243049,77.2270852 63.8721076,77.2627803 C63.8199103,77.298296 63.7956951,77.2817937 63.767713,77.2627803 L41.99713,62.367713 L53.524843,54.4803587 L76.1146188,54.4803587 C80.0278027,54.4803587 83.2113004,51.2966816 83.2113004,47.3836771 L83.2113004,11.3442152 L84.741704,11.3442152 C87.1713004,11.3442152 89.1478027,13.3208969 89.1478027,15.7503139 L89.1478027,56.0107623 L89.1479821,56.0107623 C89.1479821,58.4403587 87.1713004,60.4166816 84.7418834,60.4166816 Z" id="Shape"></path>
                            </g>
                        </g>
                    </g>
                </g>
            </g>
        </g>
    </g>
</svg>