<?xml version="1.0" encoding="UTF-8"?>
<svg width="82px" height="80px" viewBox="0 0 82 80" version="1.1" xmlns="http://www.w3.org/2000/svg" xmlns:xlink="http://www.w3.org/1999/xlink">
    <!-- Generator: Sketch 49 (51002) - http://www.bohemiancoding.com/sketch -->
    <title>piggy-bank</title>
    <desc>Created with Sketch.</desc>
    <defs></defs>
    <g id="Page-1" stroke="none" stroke-width="1" fill="none" fill-rule="evenodd">
        <g id="expert" transform="translate(-280.000000, -1683.000000)" fill="#5191FA" fill-rule="nonzero">
            <g id="why" transform="translate(135.000000, 1547.000000)">
                <g id="1" transform="translate(1.000000, 86.000000)">
                    <g id="piggy-bank">
                        <g transform="translate(144.000000, 50.000000)">
                            <path d="M43.4526892,42.5 C42.7969124,42.5 42.2652789,43.0316335 42.2652789,43.6874104 C42.2652789,44.5188048 41.5889442,45.1951394 40.7575498,45.1951394 C39.9263147,45.1951394 39.2498207,44.5188048 39.2498207,43.6874104 C39.2498207,43.0314741 38.7181873,42.5 38.0624104,42.5 C37.4066335,42.5 36.875,43.0316335 36.875,43.6874104 C36.875,45.8282869 38.6168327,47.5699602 40.7575498,47.5699602 C42.8982669,47.5699602 44.6400996,45.8281275 44.6400996,43.6874104 C44.6400996,43.0313147 44.1084661,42.5 43.4526892,42.5 Z" id="Shape"></path>
                            <path d="M78.4771315,42.5043825 L75.1349801,41.4337849 C74.7069323,41.2965737 74.3695618,40.9549004 74.2326693,40.5196813 C73.5282869,38.2801594 72.4653386,36.1776892 71.0733068,34.2704382 C70.4388845,33.4011155 69.7333865,32.570996 68.9627092,31.7807171 C69.4557769,29.6176892 69.7238247,27.1697211 69.6890837,25.0548207 C69.6393625,22.0293227 69.034741,20.2548207 67.8407968,19.6294821 C67.1977689,19.2922709 65.2407968,18.2678884 54.6484462,23.1166534 C54.3976096,23.2313944 54.1633466,23.372749 53.9464542,23.5346614 C53.2323506,23.3427888 52.5024701,23.165259 51.7681275,23.0058964 C51.6796813,22.9866135 51.5885259,22.9695618 51.4994422,22.950757 C52.3577689,21.0756972 52.8589641,19.0392032 52.9531474,16.9368924 C52.9824701,16.2815936 52.4752191,15.7266932 51.8199203,15.6975299 C51.1663745,15.6650199 50.6097211,16.1752988 50.5805578,16.8305976 C50.4258167,20.2873307 48.9918725,23.539761 46.5431076,25.9886853 C45.08,27.4517928 43.3668526,28.5145817 41.5410359,29.1839044 C38.3746614,28.7396016 35.1494821,28.7396016 31.9831076,29.1839044 C30.1571315,28.5145817 28.4441434,27.4517928 26.9810359,25.9886853 C24.3684462,23.3760956 22.9295618,19.9024701 22.9295618,16.2076494 C22.9295618,12.5126693 24.3684462,9.03920319 26.9810359,6.42661355 C29.5936255,3.81386454 33.0674104,2.37498008 36.7620717,2.37498008 C40.4567331,2.37498008 43.9305179,3.81386454 46.5431076,6.42661355 C47.592988,7.47649402 48.4605578,8.67458167 49.121753,9.987251 C49.4167331,10.5730677 50.1308367,10.8089243 50.716494,10.5137849 C51.3023108,10.2189641 51.538008,9.50486056 51.2430279,8.91920319 C50.4680478,7.37992032 49.4517928,5.97641434 48.2226295,4.74709163 C45.1614343,1.68589641 41.0913147,0 36.7622311,0 C32.4331474,0 28.3630279,1.68589641 25.3018327,4.74709163 C22.2406375,7.80844622 20.554741,11.8784064 20.554741,16.20749 C20.554741,20.5365737 22.2406375,24.6066932 25.3018327,27.6678884 C26.1848606,28.5509163 27.145498,29.3102789 28.1615936,29.9464542 C28.1619124,29.9464542 28.1622311,29.9462948 28.1625498,29.9462948 C27.4242231,30.1381673 26.6914741,30.3536255 25.9668526,30.5958566 C25.3448606,30.8038247 25.009243,31.476494 25.2172112,32.0986454 C25.4250199,32.7206375 26.098008,33.056255 26.7198406,32.8484462 C33.1956972,30.683506 40.3287649,30.683506 46.8046215,32.8484462 C46.9295618,32.8901992 47.0564143,32.9099602 47.1811952,32.9099602 C47.6779283,32.9099602 48.1410359,32.5956972 48.307251,32.0986454 C48.5152191,31.4766534 48.1796016,30.8038247 47.5576096,30.5958566 C46.832988,30.3536255 46.100239,30.138008 45.3619124,29.9462948 C45.3622311,29.9462948 45.3625498,29.9464542 45.3628685,29.9464542 C46.3791235,29.3102789 47.3396016,28.5509163 48.2226295,27.6678884 C49.0038247,26.8866932 49.6933865,26.0336255 50.2921116,25.127012 C50.6194422,25.1905976 50.9443825,25.2572112 51.2645418,25.3266932 C51.690996,25.4192829 52.1155378,25.5187251 52.536255,25.6231076 C52.5230279,25.674741 52.5094821,25.7262151 52.4984861,25.7786454 C51.9193625,28.5268526 51.9569721,30.9574502 52.6101992,33.0025498 C53.1972908,34.8407968 54.2568924,36.3300398 55.7592032,37.4291633 C57.5298805,38.7244622 59.6675697,39.2839841 61.6039841,39.2839841 C63.0613546,39.2839841 64.4049402,38.9668526 65.3917131,38.4079681 C66.5078884,37.7757769 67.4430279,36.4436653 68.1832669,34.4436653 C68.5254183,34.8430279 68.8497211,35.2521116 69.1553785,35.6709163 C70.394741,37.3687649 71.3408765,39.24 71.96749,41.2323506 C72.3354582,42.4025498 73.2489243,43.3233466 74.4108367,43.6957769 L77.752988,44.7663745 C78.6299602,45.0473307 79.2191235,45.854502 79.2191235,46.7752988 L79.2191235,52.3171315 C79.2191235,53.2379283 78.6299602,54.0450996 77.752988,54.3260558 L72.3682869,56.0508367 C71.5067729,56.327012 70.7776892,56.9190438 70.3153785,57.7180876 C68.1998406,61.3741833 64.8737849,64.3996813 60.429004,66.7105976 C59.9155378,66.9778486 59.5598406,67.4557769 59.452749,68.0221514 L57.7281275,77.1541036 C57.6804781,77.4057371 57.4600797,77.5882072 57.2039841,77.5882072 L51.596494,77.5882072 C51.3403984,77.5882072 51.12,77.4055777 51.0723506,77.1541036 L50.1171315,72.107251 C49.9290837,71.1142629 48.9977689,70.4546614 47.9953785,70.6065339 C45.5799203,70.9717928 43.090996,71.1568127 40.5980876,71.1568127 C38.7434263,71.1568127 36.91251,71.0533865 35.1558566,70.849243 C34.1845418,70.7375299 33.2796813,71.3996813 33.0981673,72.3587251 L32.1904382,77.1541036 C32.1427888,77.4057371 31.9223904,77.5882072 31.6662948,77.5882072 L26.0588048,77.5882072 C25.8027092,77.5882072 25.5823108,77.4055777 25.5340239,77.1502789 L23.8734661,68.525259 C23.7665339,67.9695618 23.4175299,67.4970518 22.9153785,67.2288446 C15.3386454,63.1840637 11.3338645,56.4264542 11.3338645,47.687012 C11.3338645,43.2713944 12.2999203,39.3668526 14.2050996,36.0814343 C15.9829482,33.0154582 18.5796016,30.4804781 21.9228685,28.5466135 C22.4905179,28.2181673 22.6844622,27.4917928 22.3561753,26.9239841 C22.0278884,26.3563347 21.3015139,26.1627092 20.7337052,26.4906773 C14.250996,30.2407968 10.3410359,36.0262948 9.26454183,43.374502 L9.26454183,43.3743426 C9.15027888,43.3639841 9.03585657,43.3541036 8.92191235,43.3423108 C8.94262948,42.5494821 8.79920319,41.7494821 8.48685259,40.9730677 C7.79792829,39.2605578 6.38278884,38.0245418 4.88143426,37.8242231 C3.69832669,37.6658167 2.57243028,38.1681275 1.7910757,39.2004781 C0.658167331,40.6975299 0.842868526,41.8822311 1.19713147,42.6124303 C1.79521912,43.8447809 3.33258964,44.716494 5.8838247,45.2645418 C5.81370518,45.3695618 5.73657371,45.4750598 5.65211155,45.5810359 C4.1447012,47.4715538 2.36876494,47.8895618 1.21561753,47.9289243 C0.540557769,47.9517131 0,48.4937052 0,49.169243 L0,49.1749801 C0,49.8412749 0.525737052,50.3847012 1.19139442,50.4151394 C1.27665339,50.4191235 1.36573705,50.4211952 1.45848606,50.4211952 C2.91760956,50.4211952 5.25944223,49.8830279 7.50932271,47.0618327 C7.86454183,46.6165737 8.15394422,46.1467729 8.37641434,45.6613546 C8.60047809,45.6866932 8.81577689,45.7083665 9.02199203,45.72749 C9.02199203,45.727012 9.02199203,45.7266932 9.02215139,45.7262151 C8.98167331,46.3697211 8.95920319,47.0226295 8.95920319,47.687012 C8.95920319,52.6317131 10.138008,57.0404781 12.4626295,60.7913944 C14.6060558,64.2495618 17.6749004,67.0811155 21.5869323,69.2105179 L23.2012749,77.5955378 C23.4608765,78.9673307 24.6626295,79.9630279 26.0588048,79.9630279 L31.6662948,79.9630279 C33.0624701,79.9630279 34.2642231,78.9673307 34.5238247,77.5955378 L35.3445418,73.2596016 C37.0490837,73.4401594 38.8138645,73.5316335 40.5979283,73.5316335 C43.0457371,73.5316335 45.4906773,73.3611155 47.8734661,73.0245418 L48.7386454,77.5958566 C48.9984064,78.9676494 50.2001594,79.9631873 51.5961753,79.9631873 L57.2036653,79.9631873 C58.5998406,79.9631873 59.8015936,78.96749 60.0613546,77.5952191 L61.7405578,68.7042231 C66.4844622,66.1956972 70.060239,62.9003984 72.3706773,58.9074104 C72.5372112,58.6196016 72.7936255,58.4084462 73.0925896,58.3126693 L78.4771315,56.5878884 C80.3411952,55.9904382 81.5936255,54.2742629 81.5936255,52.3168127 L81.5936255,46.7749801 C81.5936255,44.8176892 80.3411952,43.1015139 78.4771315,42.5043825 Z M67.1359363,28.3917131 C66.6788845,32.300239 65.4529084,35.6436653 64.2210359,36.3413546 C62.8208765,37.134502 59.5882072,37.2876494 57.1611155,35.5121912 C54.7311554,33.7346614 53.9223904,30.5381673 54.821992,26.2682072 C54.821992,26.2680478 54.821992,26.2680478 54.821992,26.2680478 C54.9123506,25.8392032 55.2170518,25.4682072 55.6369721,25.2760159 C61.5818327,22.554741 65.009243,21.6647012 66.2825498,21.6647012 C66.474741,21.6647012 66.6178486,21.6849402 66.7131474,21.7222311 C67.0956175,22.1298805 67.5972908,24.4471713 67.1359363,28.3917131 Z M3.3340239,41.5754582 C3.21115538,41.3220717 3.50119522,40.8766534 3.6850996,40.6334661 C3.97657371,40.2484462 4.2450996,40.1697211 4.44796813,40.1697211 C4.49083665,40.1697211 4.53083665,40.1732271 4.56749004,40.1781673 C5.11346614,40.250996 5.87840637,40.8517928 6.28366534,41.8591235 C6.37912351,42.096255 6.50310757,42.4890837 6.53211155,42.9789641 C4.88828685,42.6384064 3.61115538,42.1474104 3.3340239,41.5754582 Z" id="Shape"></path>
                            <path d="M41.2143227,14.721992 L41.2143227,10.472749 C42.6796614,10.5774502 43.2240438,11.247251 43.7263546,11.247251 C44.3544024,11.247251 44.6474701,10.4518725 44.6474701,10.0541036 C44.6474701,9.02828685 42.637749,8.58876494 41.2143227,8.54685259 L41.2143227,7.98143426 C41.2143227,7.73027888 40.9002191,7.5 40.5862749,7.5 C40.230259,7.5 39.9791036,7.73027888 39.9791036,7.98143426 L39.9791036,8.58844622 C37.9904183,8.79784861 36.0017331,9.84454183 36.0017331,12.4821514 C36.0017331,15.1616733 38.0951195,15.9152988 39.9791036,16.5850996 L39.9791036,21.5044622 C37.8438048,21.3369721 37.2787052,19.8716335 36.5878685,19.8716335 C36.0645219,19.8716335 35.625,20.5624701 35.625,21.0649402 C35.625,22.0905976 37.3834064,23.4931474 39.9791036,23.5350598 L39.9791036,24.1839841 C39.9791036,24.4351394 40.2304183,24.6654183 40.5862749,24.6654183 C40.9003785,24.6654183 41.2143227,24.4351394 41.2143227,24.1839841 L41.2143227,23.4722709 C43.4751992,23.1581673 45.0242032,21.734741 45.0242032,19.1599203 C45.0242032,16.3130677 43.0355179,15.3917928 41.2143227,14.721992 Z M40.1046813,14.3243825 C38.9951992,13.9057371 38.0951195,13.4662151 38.0951195,12.2730677 C38.0951195,11.1844622 38.9324104,10.6611155 40.1046813,10.5146614 L40.1046813,14.3243825 Z M41.0885857,21.4625498 L41.0885857,17.0456574 C42.114243,17.4851793 42.9306574,18.0713147 42.9306574,19.3900398 C42.9306574,20.583506 42.2189442,21.2533068 41.0885857,21.4625498 Z" id="Shape"></path>
                        </g>
                    </g>
                </g>
            </g>
        </g>
    </g>
</svg>