<?xml version="1.0" encoding="UTF-8"?>
<svg width="87px" height="80px" viewBox="0 0 87 80" version="1.1" xmlns="http://www.w3.org/2000/svg" xmlns:xlink="http://www.w3.org/1999/xlink">
    <!-- Generator: Sketch 49 (51002) - http://www.bohemiancoding.com/sketch -->
    <title>friendship</title>
    <desc>Created with Sketch.</desc>
    <defs></defs>
    <g id="Page-1" stroke="none" stroke-width="1" fill="none" fill-rule="evenodd">
        <g id="expert" transform="translate(-677.000000, -1683.000000)" fill="#5191FA" fill-rule="nonzero">
            <g id="why" transform="translate(135.000000, 1547.000000)">
                <g id="1" transform="translate(1.000000, 86.000000)">
                    <g transform="translate(400.000000, 0.000000)" id="Group-2">
                        <g>
                            <g id="friendship" transform="translate(141.000000, 50.000000)">
                                <path d="M77.2632203,45.8288136 C79.9337288,43.2855932 81.6184746,39.9461017 82.0816949,36.3235593 C84.6722034,36.3233898 86.779661,34.2164407 86.779661,31.6269492 L86.779661,30.0066102 C86.779661,27.4601695 84.7432203,25.3805085 82.2135593,25.3101695 L82.2135593,19.1422034 C82.2135593,19.1372881 82.2128814,19.1323729 82.2128814,19.1274576 L82.2128814,14.1347458 C82.2128814,6.36983051 75.8957627,0.0527118644 68.1308475,0.0527118644 L47.0028814,0.0527118644 C46.3008475,0.0527118644 45.7316949,0.621864407 45.7316949,1.32389831 L45.7316949,10.6749153 C45.7316949,11.2040678 45.7745763,11.7350847 45.8591525,12.2533898 C45.9722034,12.9462712 46.6250847,13.4161017 47.3186441,13.3030508 C48.0115254,13.19 48.4813559,12.5366102 48.3683051,11.8435593 C48.3057627,11.4605085 48.2740678,11.0672881 48.2740678,10.6749153 L48.2740678,2.59508475 L68.130678,2.59508475 C74.4937288,2.59508475 79.670339,7.77169492 79.670339,14.1347458 L79.670339,17.870678 L55.47,17.870678 C54.3191525,17.870678 53.2120339,17.6011864 52.2166102,17.0952542 C52.2137288,17.0937288 52.2108475,17.0923729 52.2079661,17.0908475 C51.5261017,16.7432203 50.8962712,16.2857627 50.3427119,15.7235593 C49.8501695,15.2233898 49.0452542,15.2171186 48.5450847,15.7098305 C48.0449153,16.2025424 48.0388136,17.0072881 48.5313559,17.5074576 C49.0808475,18.0654237 49.6864407,18.5469492 50.3338983,18.950678 C50.3330508,19.0147458 50.3305085,19.0774576 50.3305085,19.1420339 L50.3305085,25.31 C47.8008475,25.379322 45.7644068,27.4594915 45.7644068,30.0064407 L45.7644068,31.6267797 C45.7644068,34.2164407 47.8713559,36.3233898 50.4610169,36.3233898 L50.4618644,36.3233898 C51.1652542,41.8488136 54.6776271,46.4522034 59.4949153,48.7159322 L59.4949153,50.1766102 L58.7030508,51.1640678 L31.8966102,51.1640678 L29.2288136,51.1640678 L29.2288136,48.7154237 C34.0450847,46.4513559 37.5572881,41.8483051 38.2616949,36.3233898 L38.2627119,36.3233898 C40.8523729,36.3233898 42.959322,34.2164407 42.959322,31.6267797 L42.959322,30.0064407 C42.959322,27.4594915 40.9228814,25.379322 38.3932203,25.31 L38.3932203,18.4962712 C38.3932203,18.4940678 38.3928814,18.4918644 38.3928814,18.489661 L38.3928814,10.4598305 C38.3928814,5.21338983 34.1245763,0.945084746 28.8781356,0.945084746 L26.1744068,0.945084746 C25.4723729,0.945084746 24.9032203,1.51423729 24.9032203,2.21627119 C24.9032203,2.91830508 25.4723729,3.48745763 26.1744068,3.48745763 L28.8781356,3.48745763 C32.7227119,3.48745763 35.8505085,6.61525424 35.8505085,10.4598305 L35.8505085,18.2979661 L24.6174576,18.2979661 C24.229661,18.2979661 23.8474576,18.1669492 23.5413559,17.9288136 L18.3537288,13.8938983 C17.7688136,13.4386441 17.0208475,13.280678 16.3016949,13.460678 C15.5825424,13.640339 14.9969492,14.1315254 14.6947458,14.8084746 L13.600339,17.259661 C13.3188136,17.8905085 12.6905085,18.2979661 11.9998305,18.2979661 L9.05322034,18.2979661 L9.05322034,10.3711864 C9.05322034,8.87186441 10.2728814,7.65220339 11.7722034,7.65220339 L16.1430508,7.65220339 C16.8450847,7.65220339 17.4142373,7.08305085 17.4142373,6.38101695 L17.4142373,4.92949153 C17.4142373,4.13440678 18.0610169,3.48762712 18.8561017,3.48762712 L21.1098305,3.48762712 C21.8118644,3.48762712 22.3810169,2.91847458 22.3810169,2.21644068 C22.3810169,1.51440678 21.8118644,0.945254237 21.1098305,0.945254237 L18.8561017,0.945254237 C16.6591525,0.945254237 14.8718644,2.73254237 14.8718644,4.92949153 L14.8718644,5.10983051 L11.7722034,5.10983051 C8.87101695,5.10983051 6.51084746,7.47 6.51084746,10.3711864 L6.51084746,18.4850847 C6.51084746,18.4889831 6.51033898,18.4927119 6.51033898,18.4966102 L6.51033898,25.310339 C3.98067797,25.380678 1.94423729,27.4605085 1.94423729,30.0067797 L1.94423729,31.6271186 C1.94423729,34.2164407 4.05152542,36.3232203 6.64169492,36.3237288 C7.34508475,41.849322 10.8581356,46.4528814 15.6764407,48.7166102 L15.6764407,51.1644068 L13.0084746,51.1644068 C12.2277966,51.1644068 11.4571186,51.2513559 10.7047458,51.4213559 C10.0825424,50.3308475 8.91084746,49.5923729 7.5679661,49.5923729 L4.45627119,49.5923729 C1.99898305,49.5923729 0,51.5913559 0,54.0486441 L0,61.000339 C0,62.7952542 1.06728814,64.3445763 2.6,65.05 L2.6,78.6761017 C2.6,79.3781356 3.16915254,79.9472881 3.87118644,79.9472881 L41.0338983,79.9472881 C41.7359322,79.9472881 42.3050847,79.3781356 42.3050847,78.6761017 L42.3050847,61.5727119 C42.3050847,58.4335593 40.9061017,55.6166102 38.7011864,53.7066102 L56.6835593,53.7066102 C56.0047458,54.699322 55.7188136,55.9228814 55.8986441,57.1183051 L57.0538983,64.8466102 C57.1544068,65.5332203 57.590339,66.1169492 58.22,66.4079661 C58.8510169,66.6994915 59.5798305,66.6532203 60.1713559,66.2827119 L66.2711864,62.4472881 L72.3727119,66.2830508 C72.7054237,66.4920339 73.0827119,66.5979661 73.4622034,66.5979661 C73.7528814,66.5979661 74.0447458,66.5357627 74.3183051,66.41 C74.9489831,66.120339 75.3867797,65.5372881 75.4894915,64.8505085 L76.6452542,57.119322 C76.8247458,55.9252542 76.5391525,54.7030508 75.8613559,53.710339 C80.1313559,53.7888136 83.5813559,57.2842373 83.5813559,61.5727119 L83.5813559,77.4049153 L79.9867797,77.4049153 L79.9867797,68.8366102 C79.9867797,68.1345763 79.4176271,67.5654237 78.7155932,67.5654237 C78.0135593,67.5654237 77.4444068,68.1345763 77.4444068,68.8366102 L77.4444068,77.4049153 L55.0983051,77.4049153 L55.0983051,62.7015254 C55.0983051,61.9994915 54.5291525,61.430339 53.8271186,61.430339 L46.0610169,61.430339 C45.3589831,61.430339 44.7898305,61.9994915 44.7898305,62.7015254 C44.7898305,63.4035593 45.3589831,63.9727119 46.0610169,63.9727119 L52.5559322,63.9727119 L52.5559322,78.6761017 C52.5559322,79.3781356 53.1250847,79.9472881 53.8271186,79.9472881 L84.8525424,79.9472881 C85.5545763,79.9472881 86.1237288,79.3781356 86.1237288,78.6761017 L86.1237288,61.5727119 C86.1237288,55.8335593 81.4545763,51.1642373 75.7152542,51.1642373 L73.839322,51.1642373 L73.0474576,50.1767797 L73.0474576,48.7164407 C74.5816949,47.9947458 76.0059322,47.0269492 77.2632203,45.8288136 Z M9.07288136,34.9869492 C9.0379661,34.3113559 8.47983051,33.7813559 7.80338983,33.7813559 L6.64237288,33.7813559 C5.45355932,33.7813559 4.48644068,32.8149153 4.48644068,31.6271186 L4.48644068,30.0067797 C4.48644068,28.8179661 5.45355932,27.8508475 6.64237288,27.8508475 L7.78135593,27.8508475 C8.48338983,27.8508475 9.05254237,27.2816949 9.05254237,26.579661 L9.05254237,20.8405085 L11.9998305,20.8405085 C13.6923729,20.8405085 15.2318644,19.8418644 15.9220339,18.2962712 L16.9401695,16.0154237 L21.9805085,19.9355932 C22.7305085,20.5189831 23.6671186,20.840339 24.6174576,20.840339 L35.8508475,20.840339 L35.8508475,26.5794915 C35.8508475,27.2815254 36.42,27.850678 37.1220339,27.850678 L38.2627119,27.850678 C39.4505085,27.850678 40.4169492,28.8177966 40.4169492,30.0066102 L40.4169492,31.6269492 C40.4169492,32.8147458 39.4505085,33.7811864 38.2627119,33.7811864 L37.1,33.7811864 C36.4235593,33.7811864 35.8655932,34.3110169 35.8305085,34.9866102 C35.5537288,40.3245763 32.1818644,44.7952542 27.5059322,46.6991525 C27.4884746,46.7057627 27.4708475,46.7118644 27.4538983,46.7191525 C25.9066102,47.3416949 24.2183051,47.6845763 22.4523729,47.6845763 C15.3176271,47.6845763 9.44050847,42.1071186 9.07288136,34.9869492 Z M26.6864407,49.6559322 L26.6864407,54.3525424 C26.6864407,55.4830508 26.2455932,56.5464407 25.4452542,57.3469492 C24.6459322,58.1462712 23.5830508,58.5864407 22.4525424,58.5864407 C20.1179661,58.5864407 18.2186441,56.6871186 18.2186441,54.3525424 L18.2186441,49.6562712 C19.5684746,50.0267797 20.9877966,50.2269492 22.4525424,50.2269492 C23.9172881,50.2269492 25.3366102,50.0267797 26.6864407,49.6559322 Z M2.54237288,61.000339 L2.54237288,54.0486441 C2.54237288,52.9932203 3.40084746,52.1347458 4.45627119,52.1347458 L7.5679661,52.1347458 C8.15728814,52.1347458 8.63677966,52.6142373 8.63677966,53.2035593 L8.63677966,61.8454237 C8.63677966,62.4347458 8.15728814,62.9142373 7.5679661,62.9142373 L4.45627119,62.9142373 C3.40084746,62.9142373 2.54237288,62.0557627 2.54237288,61.000339 Z M39.7627119,61.5727119 L39.7627119,77.4049153 L36.1669492,77.4049153 L36.1669492,68.8366102 C36.1669492,68.1345763 35.5977966,67.5654237 34.8957627,67.5654237 C34.1937288,67.5654237 33.6245763,68.1345763 33.6245763,68.8366102 L33.6245763,77.4049153 L11.2789831,77.4049153 L11.2789831,68.8366102 C11.2789831,68.1345763 10.7098305,67.5654237 10.0077966,67.5654237 C9.30576271,67.5654237 8.73661017,68.1345763 8.73661017,68.8366102 L8.73661017,77.4049153 L5.14237288,77.4049153 L5.14237288,65.4566102 L7.56813559,65.4566102 C9.55932203,65.4566102 11.179322,63.8366102 11.179322,61.8454237 L11.179322,53.9216949 C11.7755932,53.7798305 12.3876271,53.7066102 13.0086441,53.7066102 L15.6764407,53.7066102 L15.6764407,54.3523729 C15.6764407,58.0888136 18.7162712,61.1286441 22.4527119,61.1286441 C24.2622034,61.1286441 25.9635593,60.4238983 27.2430508,59.1444068 C28.5237288,57.8637288 29.2289831,56.1618644 29.2289831,54.3523729 L29.2289831,53.7066102 L31.8967797,53.7066102 C36.2340678,53.7066102 39.7627119,57.2354237 39.7627119,61.5727119 Z M59.4576271,63.7286441 L58.4130508,56.7413559 C58.320339,56.1245763 58.4908475,55.4920339 58.8815254,55.0054237 L59.5181356,54.2115254 C59.5794915,54.6898305 59.7725424,55.1454237 60.0798305,55.5177966 L64.2808475,60.640678 C64.2908475,60.6530508 64.3025424,60.6635593 64.3127119,60.6755932 L59.4576271,63.7286441 Z M66.2713559,59.0411864 C66.2567797,59.0411864 66.2527119,59.0362712 66.2472881,59.029661 L62.0432203,53.9030508 C62.039661,53.8989831 62.0371186,53.8918644 62.0371186,53.8866102 L62.0371186,49.6564407 C63.3869492,50.0267797 64.8062712,50.2269492 66.2711864,50.2269492 C67.7191525,50.2269492 69.1401695,50.029322 70.5050847,49.6545763 L70.5050847,53.8864407 C70.5050847,53.8950847 70.5018644,53.9015254 70.4984746,53.9057627 L66.2972881,59.0288136 C66.2923729,59.0349153 66.2871186,59.0411864 66.2713559,59.0411864 Z M73.6611864,55.0059322 C74.0523729,55.4930508 74.2235593,56.1257627 74.1310169,56.7425424 L73.0866102,63.7288136 L68.2310169,60.6762712 C68.2411864,60.6642373 68.2527119,60.6538983 68.2627119,60.6416949 L72.4620339,55.5208475 C72.770339,55.1469492 72.9632203,54.6910169 73.0244068,54.2118644 L73.6611864,55.0059322 Z M71.2986441,46.7088136 C71.2861017,46.7138983 71.2738983,46.719322 71.2616949,46.7247458 C69.6930508,47.3544068 68.0042373,47.6847458 66.2711864,47.6847458 C64.5066102,47.6847458 62.8194915,47.3423729 61.2730508,46.7210169 C61.2530508,46.7123729 61.2323729,46.7049153 61.2118644,46.6971186 C56.5381356,44.7920339 53.1688136,40.3228814 52.8932203,34.9869492 C52.8583051,34.3113559 52.3001695,33.7813559 51.6237288,33.7813559 L50.4610169,33.7813559 C49.2730508,33.7813559 48.3067797,32.8149153 48.3067797,31.6271186 L48.3067797,30.0067797 C48.3067797,28.8179661 49.2732203,27.8508475 50.4610169,27.8508475 L51.6016949,27.8508475 C52.3037288,27.8508475 52.8728814,27.2816949 52.8728814,26.579661 L52.8728814,20.0625424 C53.7081356,20.2920339 54.5791525,20.4132203 55.47,20.4132203 L79.6711864,20.4132203 L79.6711864,26.579661 C79.6711864,27.2816949 80.240339,27.8508475 80.9423729,27.8508475 L82.0813559,27.8508475 C83.2701695,27.8508475 84.2372881,28.8179661 84.2372881,30.0067797 L84.2372881,31.6271186 C84.2372881,32.8149153 83.2701695,33.7813559 82.0813559,33.7813559 L80.920339,33.7813559 C80.2440678,33.7813559 79.6861017,34.3110169 79.6508475,34.9864407 C79.4720339,38.4183051 78.0013559,41.6149153 75.5094915,43.9883051 C74.2723729,45.1672881 72.8440678,46.0830508 71.2986441,46.7088136 Z" id="Shape"></path>
                                <path d="M72.2547458,34.3033898 C71.6042373,34.039661 70.8628814,34.3528814 70.5989831,35.0035593 C69.8818644,36.7720339 68.1832203,37.9147458 66.2718644,37.9147458 C65.0255932,37.9147458 63.8520339,37.4286441 62.9684746,36.5474576 C62.5227119,36.1015254 62.1784746,35.5828814 61.9455932,35.0055932 C61.6828814,34.3545763 60.9422034,34.04 60.2910169,34.3025424 C59.64,34.5652542 59.3252542,35.3061017 59.5879661,35.9571186 C59.9494915,36.8528814 60.4820339,37.6562712 61.1718644,38.3462712 C62.5362712,39.7074576 64.3476271,40.4571186 66.2716949,40.4571186 C69.2233898,40.4571186 71.8466102,38.6915254 72.9549153,35.9591525 C73.2188136,35.3086441 72.9052542,34.5672881 72.2547458,34.3033898 Z" id="Shape"></path>
                                <path d="M58.9281356,25.549661 C58.2261017,25.549661 57.6569492,26.1188136 57.6569492,26.8208475 L57.6569492,27.5294915 C57.6569492,28.2315254 58.2261017,28.800678 58.9281356,28.800678 C59.6301695,28.800678 60.199322,28.2315254 60.199322,27.5294915 L60.199322,26.8208475 C60.199322,26.1188136 59.6301695,25.549661 58.9281356,25.549661 Z" id="Shape"></path>
                                <path d="M73.6154237,25.549661 C72.9133898,25.549661 72.3442373,26.1188136 72.3442373,26.8208475 L72.3442373,27.5294915 C72.3442373,28.2315254 72.9133898,28.800678 73.6154237,28.800678 C74.3174576,28.800678 74.8866102,28.2315254 74.8866102,27.5294915 L74.8866102,26.8208475 C74.8866102,26.1188136 74.3174576,25.549661 73.6154237,25.549661 Z" id="Shape"></path>
                                <path d="M28.4347458,34.3033898 C27.7842373,34.039661 27.0428814,34.3528814 26.7789831,35.0035593 C26.0616949,36.7720339 24.3632203,37.9147458 22.4518644,37.9147458 C21.2055932,37.9147458 20.0320339,37.4286441 19.1484746,36.5474576 C18.7027119,36.1015254 18.3584746,35.5828814 18.1255932,35.0055932 C17.8627119,34.3545763 17.1220339,34.04 16.4710169,34.3025424 C15.82,34.5652542 15.5052542,35.3061017 15.7679661,35.9571186 C16.1294915,36.8528814 16.6620339,37.6562712 17.3518644,38.3462712 C18.7164407,39.7074576 20.5277966,40.4571186 22.4518644,40.4571186 C25.4033898,40.4571186 28.0266102,38.6915254 29.1349153,35.9591525 C29.3988136,35.3086441 29.0852542,34.5672881 28.4347458,34.3033898 Z" id="Shape"></path>
                                <path d="M15.1081356,25.549661 C14.4061017,25.549661 13.8369492,26.1188136 13.8369492,26.8208475 L13.8369492,27.5294915 C13.8369492,28.2315254 14.4061017,28.800678 15.1081356,28.800678 C15.8101695,28.800678 16.379322,28.2315254 16.379322,27.5294915 L16.379322,26.8208475 C16.379322,26.1188136 15.8101695,25.549661 15.1081356,25.549661 Z" id="Shape"></path>
                                <path d="M29.7954237,25.549661 C29.0933898,25.549661 28.5242373,26.1188136 28.5242373,26.8208475 L28.5242373,27.5294915 C28.5242373,28.2315254 29.0933898,28.800678 29.7954237,28.800678 C30.4974576,28.800678 31.0666102,28.2315254 31.0666102,27.5294915 L31.0666102,26.8208475 C31.0666102,26.1188136 30.4974576,25.549661 29.7954237,25.549661 Z" id="Shape"></path>
                            </g>
                        </g>
                    </g>
                </g>
            </g>
        </g>
    </g>
</svg>