<?xml version="1.0" encoding="UTF-8"?>
<svg width="66px" height="66px" viewBox="0 0 66 66" version="1.1" xmlns="http://www.w3.org/2000/svg" xmlns:xlink="http://www.w3.org/1999/xlink">
    <!-- Generator: Sketch 49 (51002) - http://www.bohemiancoding.com/sketch -->
    <title>ico_insurance</title>
    <desc>Created with Sketch.</desc>
    <defs></defs>
    <g id="Hotel-layout" stroke="none" stroke-width="1" fill="none" fill-rule="evenodd">
        <g id="01_Home" transform="translate(-534.000000, -659.000000)" fill-rule="nonzero">
            <g id="intro" transform="translate(0.000000, 650.000000)">
                <g id="1" transform="translate(535.000000, 0.000000)">
                    <g id="ico_insurance" transform="translate(0.000000, 10.000000)">
                        <path d="M31.9106977,0.000212624585 C14.315588,0.000212624585 0,14.3147375 0,31.9109103 C0,32.067402 0.00510299003,32.2238937 0.0102059801,32.3793223 L0.0174352159,32.6191628 L2.07627907,32.6304319 C2.24191362,27.6090897 6.30389369,23.6759601 11.3231096,23.6759601 C16.4307774,23.6759601 20.587588,27.831495 20.587588,32.9404385 L22.6464319,32.9404385 C22.6464319,28.1795615 26.2563721,24.2504718 30.8813821,23.7367708 L30.8813821,32.9404385 L32.9402259,32.9404385 L32.9402259,23.7367708 C37.5652359,24.2504718 41.1751761,28.1795615 41.1751761,32.9404385 L43.2340199,32.9404385 C43.2340199,27.8317076 47.3906179,23.6759601 52.4984983,23.6759601 C57.5177143,23.6759601 61.5796944,27.6093023 61.746392,32.6304319 L63.8052359,32.6191628 L63.8124651,32.3793223 C63.816505,32.2238937 63.8218206,32.067402 63.8218206,31.9109103 C63.8213953,14.3147375 49.5058073,0.000212624585 31.9106977,0.000212624585 Z M11.3231096,21.6171163 C7.88603322,21.6171163 4.81637209,23.1250498 2.74540864,25.530897 C5.48039867,13.0198538 16.0850498,3.41985382 29.0891694,2.19492359 C27.1476944,4.21251827 24.3901661,7.78227243 22.6957608,13.0681196 C21.2669236,17.5232425 20.791495,22.8503389 20.6401063,26.5240664 C18.5946578,23.5636944 15.1843721,21.6171163 11.3231096,21.6171163 Z M31.9106977,21.6171163 C28.1247043,21.6171163 24.7709767,23.4884252 22.7142591,26.3512027 C22.8747907,22.8039867 23.3410764,17.7949767 24.6557342,13.6970631 C26.6950166,7.33852492 30.457196,3.61440532 31.9106977,2.35651827 C33.3641993,3.61440532 37.1265914,7.33873754 39.1656611,13.6970631 C40.4790432,17.7909369 40.9455415,22.8007973 41.1060731,26.3501395 C39.0493555,23.4875748 35.6956279,21.6171163 31.9106977,21.6171163 Z M52.4982857,21.6171163 C48.6370233,21.6171163 45.2267375,23.5636944 43.1815017,26.5240664 C43.030113,22.8501262 42.5546844,17.5232425 41.1258472,13.0681196 C39.4312292,7.78227243 36.6734884,4.21336877 34.7322259,2.19492359 C47.7363455,3.41985382 58.3420598,13.0198538 61.0759867,25.530897 C59.0048106,23.1250498 55.9353621,21.6171163 52.4982857,21.6171163 Z" id="Shape" stroke="#FFFFFF" stroke-width="0.5" fill="#1A2B48"></path>
                        <path d="M30.8813821,56.6159734 C30.8813821,59.4538738 28.5724917,61.7627641 25.7345914,61.7627641 C22.896691,61.7627641 20.5878007,59.4538738 20.5878007,56.6159734 L20.5878007,55.5866578 L18.5289568,55.5866578 L18.5289568,56.6159734 C18.5289568,60.5884385 21.7612757,63.821608 25.7345914,63.821608 C29.707907,63.821608 32.9402259,60.5884385 32.9402259,56.6159734 L32.9402259,55.5866578 L30.8813821,55.5866578 L30.8813821,56.6159734 Z" id="Shape" stroke="#FFFFFF" stroke-width="0.5" fill="#1A2B48"></path>
                        <path d="M31.9106977,56.6159734 C25.0992691,56.6159734 19.5582724,51.0747641 19.5582724,44.2635482 C19.5582724,37.4523322 25.0994817,31.9111229 31.9106977,31.9111229 C38.7219136,31.9111229 44.2631229,37.4523322 44.2631229,44.2635482 C44.2631229,51.0747641 38.7221262,56.6159734 31.9106977,56.6159734 Z" id="Shape" fill="#5191FA"></path>
                        <path d="M31.9106977,49.4103389 C30.2358538,49.4103389 28.759814,48.5940731 27.8200133,47.351495 L32.9402259,47.351495 L32.9402259,45.2926512 L26.8678804,45.2926512 C26.7998405,44.9601063 26.763907,44.6152292 26.763907,44.2633355 C26.763907,43.9114419 26.7998405,43.5663522 26.8678804,43.2340199 L32.9402259,43.2340199 L32.9402259,41.1751761 L27.8200133,41.1751761 C28.7608771,39.9328106 30.2369169,39.1163322 31.9106977,39.1163322 C33.3652625,39.1163322 34.7600797,39.7412359 35.7390033,40.8332757 L37.2707508,39.4580199 C35.9027243,37.9324385 33.9489169,37.0574884 31.9106977,37.0574884 C29.0438804,37.0574884 26.5693555,38.7446645 25.4101262,41.1749635 L23.6755349,41.1749635 L23.6755349,43.2338073 L24.7873488,43.2338073 C24.7388704,43.5714551 24.7050631,43.9131429 24.7050631,44.2631229 C24.7050631,44.613103 24.7390831,44.9547907 24.7873488,45.2924385 L23.6755349,45.2924385 L23.6755349,47.3512824 L25.4101262,47.3512824 C26.5691429,49.7815814 29.0438804,51.4687575 31.9106977,51.4687575 C33.9489169,51.4687575 35.9025116,50.5938073 37.2716013,49.0682259 L35.7398538,47.6929701 C34.7600797,48.7854352 33.3652625,49.4103389 31.9106977,49.4103389 Z" id="Shape" stroke="#5191FA" fill="#FFFFFF"></path>
                    </g>
                </g>
            </g>
        </g>
    </g>
</svg>