<?xml version="1.0" encoding="UTF-8"?>
<svg width="68px" height="65px" viewBox="0 0 68 65" version="1.1" xmlns="http://www.w3.org/2000/svg" xmlns:xlink="http://www.w3.org/1999/xlink">
    <!-- Generator: Sketch 49 (51002) - http://www.bohemiancoding.com/sketch -->
    <title>ico_eath</title>
    <desc>Created with Sketch.</desc>
    <defs></defs>
    <g id="Hotel-layout" stroke="none" stroke-width="1" fill="none" fill-rule="evenodd">
        <g id="01_Home" transform="translate(-134.000000, -660.000000)" fill-rule="nonzero">
            <g id="intro" transform="translate(0.000000, 650.000000)">
                <g id="1" transform="translate(135.000000, 0.000000)">
                    <g id="ico_eath" transform="translate(0.000000, 10.000000)">
                        <polygon id="Shape" fill="#000000" points="55.6090884 26.8437146 58.1367742 26.8437146 58.1367742 29.406217 55.6090884 29.406217"></polygon>
                        <polygon id="Shape" fill="#000000" points="13.9022721 29.406217 16.4299579 29.406217 16.4299579 31.9687195 13.9022721 31.9687195"></polygon>
                        <path d="M51.2436466,3.07237541 L49.8279944,5.19569888 C51.992202,6.67839691 53.924376,8.41947222 55.6090884,10.3563637 L55.6090884,15.5376735 C55.6090884,18.416735 53.4831417,20.857869 50.6647966,21.2150929 C47.7199439,21.5867057 45.498345,24.1379473 45.498345,27.1471358 C45.498345,28.9745455 46.306143,30.6762073 47.7125386,31.8173217 L48.9331838,32.8064126 C50.6475175,34.19652 51.4892567,36.4261974 51.1276297,38.6220919 C50.8357363,40.4032062 49.7903507,41.9572239 48.2636185,42.8862561 C45.8229454,44.3714565 43.8605329,46.5198045 42.5861991,49.1017008 L40.7564656,52.8109482 C39.7252735,54.9029912 39.1791304,57.2465298 39.1791304,59.5863147 L39.1791304,60.7612122 C37.1395793,61.2016423 35.027209,61.4374976 32.8599158,61.4374976 C28.371052,61.4374976 24.110519,60.4352689 20.2720897,58.6535289 C24.1962973,55.9027175 26.5407013,51.4052004 26.5407013,46.5554643 C26.5407013,44.2125514 25.3928752,42.0379277 23.4681066,40.7379081 L23.080561,40.4764028 C21.075568,39.121955 20.5325105,36.3661388 21.8697897,34.3354057 C23.3280224,32.1176149 23.4230575,29.3023655 22.1184852,26.9882307 L20.2381487,23.6505963 C19.120561,21.6686608 17.0291726,20.4374585 14.7767181,20.4374585 C12.1897896,20.4374585 9.89722308,22.0121212 8.93638145,24.4463734 C8.36308555,25.9034213 6.99186528,26.8437146 5.44476862,26.8437146 L2.76650775,26.8437146 C3.84830295,18.1095602 8.5840113,10.2055914 15.8930714,5.19569888 L14.4774194,3.07237541 C5.41206163,9.28531777 0,19.6097751 0,30.6874682 C0,49.0554057 14.7415428,64 32.8599158,64 C50.9782889,64 65.7198317,49.0554057 65.7198317,30.6874682 C65.7198317,19.6097751 60.3077701,9.28531777 51.2436466,3.07237541 Z M2.52768583,30.6874682 C2.52768583,30.258299 2.54928475,29.8328836 2.56656385,29.406217 L5.44476862,29.406217 C8.03169709,29.406217 10.3242636,27.8315543 11.2851052,25.3973021 C11.8584011,23.9402542 13.2296214,22.9999609 14.7767181,22.9999609 C16.1226368,22.9999609 17.3753717,23.7369305 18.0424684,24.9218377 L19.9234221,28.2594722 C20.7497335,29.7252787 20.6892567,31.5088954 19.7654418,32.9140176 C17.6561571,36.121525 18.5139411,40.4713979 21.6784852,42.609736 L22.066648,42.8706158 C23.286059,43.6932942 24.0130154,45.0721407 24.0130154,46.5554643 C24.0130154,50.6313197 22.0160449,54.4137634 18.6706873,56.6740957 L17.7203366,57.3159726 C8.65004204,51.9957771 2.52768583,42.0560704 2.52768583,30.6874682 Z M41.7068163,60.0999414 L41.7068163,59.5863147 C41.7068163,57.6412903 42.1591584,55.6950146 43.0175596,53.9564418 L44.8472931,50.2471945 C45.9050211,48.1019746 47.536662,46.316481 49.563871,45.0821505 C51.7280786,43.7664906 53.2066761,41.5655914 53.6195231,39.0425025 C54.1317252,35.9313393 52.9400842,32.7745064 50.5105189,30.8050831 L49.2898738,29.8159922 C48.4876297,29.1653568 48.0260309,28.1912805 48.0260309,27.1471358 C48.0260309,25.4279569 49.2948107,23.9696579 50.9782889,23.7569501 C55.0592426,23.2395699 58.1367742,19.7061193 58.1367742,15.5364224 L58.1367742,13.7096384 C61.3821599,18.6744869 63.1921459,24.5514761 63.1921459,30.6874682 C63.1921459,44.52348 54.1292566,56.252434 41.7068163,60.0999414 Z" id="Shape" stroke="#FFFFFF" stroke-width="0.7" fill="#1A2B48"></path>
                        <polygon id="Shape" fill="#000000" points="8.84690042 42.2187292 11.3745863 42.2187292 11.3745863 44.7812317 8.84690042 44.7812317"></polygon>
                        <polygon id="Shape" fill="#000000" points="48.0260309 49.9062366 50.5537167 49.9062366 50.5537167 52.468739 48.0260309 52.468739"></polygon>
                        <polygon id="Shape" fill="#000000" points="17.6938008 48.6249853 20.2214867 48.6249853 20.2214867 51.1874878 17.6938008 51.1874878"></polygon>
                        <path d="M33.0194844,26.8437146 C32.370895,26.8437146 31.7737342,26.5227528 31.4202858,25.9837057 L24.5691508,15.5422235 C23.5140466,13.9338445 22.9565217,12.06941 22.9565217,10.1504541 C22.9565217,4.69572572 27.4357193,0.258079615 32.9415226,0.258079615 L33.0974462,0.258079615 C38.6032495,0.258079615 43.0824471,4.69572572 43.0824471,10.1504541 C43.0824471,12.06941 42.5249222,13.9338445 41.469818,15.5422235 L34.6186831,25.9837057 C34.2652347,26.5227528 33.6680738,26.8437146 33.0194844,26.8437146 Z" id="Shape" fill="#5191FA"></path>
                        <path d="M32.776908,16.1004032 C29.4481377,16.1004032 26.7391304,13.4165262 26.7391304,10.1186354 C26.7391304,6.8207445 29.4481377,4.13686749 32.776908,4.13686749 C36.1056784,4.13686749 38.8146856,6.8207445 38.8146856,10.1186354 C38.8146856,13.4165262 36.1056784,16.1004032 32.776908,16.1004032 Z M32.776908,5.46614924 C30.1874641,5.46614924 28.0808588,7.55321247 28.0808588,10.1186354 C28.0808588,12.6840582 30.1874641,14.7711215 32.776908,14.7711215 C35.366352,14.7711215 37.4729573,12.6840582 37.4729573,10.1186354 C37.4729573,7.55321247 35.366352,5.46614924 32.776908,5.46614924 Z" id="Shape" stroke="#5191FA" stroke-width="0.5" fill="#FFFFFF"></path>
                    </g>
                </g>
            </g>
        </g>
    </g>
</svg>