<?xml version="1.0" encoding="UTF-8"?>
<svg width="66px" height="65px" viewBox="0 0 66 65" version="1.1" xmlns="http://www.w3.org/2000/svg" xmlns:xlink="http://www.w3.org/1999/xlink">
    <!-- Generator: Sketch 49 (51002) - http://www.bohemiancoding.com/sketch -->
    <title>ico_piggy-bank</title>
    <desc>Created with Sketch.</desc>
    <defs></defs>
    <g id="Hotel-layout" stroke="none" stroke-width="1" fill="none" fill-rule="evenodd">
        <g id="01_Home" transform="translate(-934.000000, -660.000000)" fill-rule="nonzero">
            <g id="intro" transform="translate(0.000000, 650.000000)">
                <g id="1" transform="translate(935.000000, 0.000000)">
                    <g id="ico_piggy-bank" transform="translate(0.000000, 10.000000)">
                        <path d="M60.7517342,33.0785753 L58.6733289,33.0785753 C58.6269767,28.9985753 56.7205847,25.2116164 53.5273887,22.8155616 L53.5273887,16.6314521 C53.5273887,14.5834521 51.9112292,12.9176986 49.9246777,12.9176986 C45.6630432,12.9176986 42.0550166,16.1084932 41.3212492,20.3454247 L38.0870166,20.3454247 L38.0870166,22.467726 L43.1938339,22.467726 L43.2576213,21.4766027 C43.4891694,17.8678356 46.4178605,15.04 49.9248904,15.04 C50.7762392,15.04 51.4689701,15.7540822 51.4689701,16.6316712 L51.4689701,23.9406027 L51.9301528,24.2546849 C54.8639468,26.2590685 56.6159734,29.6142466 56.6159734,33.2326575 L56.6159734,35.2010959 L60.7519468,35.2010959 C61.3098738,35.2010959 61.7627641,35.6679452 61.7627641,36.2430685 L61.7627641,46.892274 C61.7627641,47.4673973 61.3098738,47.9342466 60.7519468,47.9342466 L56.4037741,47.9342466 L56.1864718,48.6961096 C55.1818206,52.2211507 52.5403854,54.9448767 49.1198937,55.9804932 L48.3808106,56.2044932 L48.3808106,61.1916712 C48.3808106,61.4877808 48.1471362,61.7286575 47.8598804,61.7286575 L37.5784186,61.7286575 C37.2911628,61.7286575 37.0574884,61.4877808 37.0574884,61.1916712 L37.0574884,56.4230137 L26.7636944,56.4230137 L26.7636944,61.1916712 C26.7636944,61.4877808 26.5300199,61.7286575 26.2427641,61.7286575 L15.961515,61.7286575 C15.6742591,61.7286575 15.4405847,61.4877808 15.4405847,61.1916712 L15.4405847,55.4998356 L14.8877608,55.2017534 C11.4187907,53.3363288 9.26426578,49.6797808 9.26426578,45.6580822 L9.26426578,33.2326575 C9.26426578,27.9631781 12.9154551,23.500274 17.9470033,22.6204932 L17.6021262,20.5269041 C11.5782591,21.5804932 7.20542193,26.924274 7.20542193,33.2326575 L7.20542193,36.262137 L5.98665781,36.262137 C6.10190033,35.9289863 6.17610631,35.5745753 6.17610631,35.2010959 C6.17610631,33.446137 4.79064452,32.0177534 3.08794684,32.0177534 C2.72563455,32.0177534 2.3818206,32.0942466 2.05863123,32.2130411 L2.05863123,28.834411 L0,28.834411 L0,35.2010959 C0,36.9560548 1.38546179,38.3844384 3.08815947,38.3844384 L7.20563455,38.3844384 L7.20563455,45.6583014 C7.20563455,50.2549041 9.55662458,54.4536986 13.3819535,56.7669041 L13.3819535,61.1905753 C13.3819535,62.6581918 14.5390565,63.8507397 15.961515,63.8507397 L26.2429767,63.8507397 C27.6656478,63.8507397 28.8225382,62.6579726 28.8225382,61.1916712 L28.8225382,58.5453151 L34.9988571,58.5453151 L34.9988571,61.1916712 C34.9988571,62.6581918 36.1559601,63.8507397 37.5784186,63.8507397 L47.8598804,63.8507397 C49.2825515,63.8507397 50.4394419,62.6579726 50.4394419,61.1916712 L50.4394419,57.7663562 C53.9311628,56.4644384 56.6567973,53.6545753 57.92,50.0552329 L60.7517342,50.0552329 C62.4440133,50.0563288 63.8213953,48.6364932 63.8213953,46.8920548 L63.8213953,36.2428493 C63.8213953,34.498411 62.4440133,33.0785753 60.7517342,33.0785753 Z M2.05884385,35.2008767 C2.05884385,34.6161096 2.5210897,34.1398356 3.08815947,34.1398356 C3.65522924,34.1398356 4.11747508,34.6163288 4.11747508,35.2008767 C4.11747508,35.7854247 3.65522924,36.2619178 3.08815947,36.2619178 C2.5210897,36.2619178 2.05884385,35.7854247 2.05884385,35.2008767 Z" id="Shape" stroke="#FFFFFF" stroke-width="0.5" fill="#1A2B48"></path>
                        <path d="M27.7932226,27.7731507 C20.4147243,27.7731507 14.4112691,21.5848767 14.4112691,13.9787397 C14.4112691,6.37260274 20.4145116,0.184328767 27.7932226,0.184328767 C35.1719336,0.184328767 41.1751761,6.37260274 41.1751761,13.9787397 C41.1751761,21.5848767 35.1717209,27.7731507 27.7932226,27.7731507 Z" id="Shape" fill="#5191FA"></path>
                        <rect id="Rectangle-path" stroke="#FFFFFF" stroke-width="0.5" fill="#333333" x="19.5580598" y="26.7118904" width="16.470113" height="2.12230137"></rect>
                        <path d="M33.9693289,11.8564384 L33.9693289,10.2647671 C33.9693289,7.63221918 31.8909236,5.48975342 29.3370897,5.48975342 L28.8223256,5.48975342 L28.8223256,3.36745205 L26.7634817,3.36745205 L26.7634817,5.48975342 L26.2487176,5.48975342 C23.6948837,5.48975342 21.6164784,7.63221918 21.6164784,10.2647671 C21.6164784,12.8973151 23.6948837,15.0397808 26.2487176,15.0397808 L29.3368771,15.0397808 C30.7552957,15.0397808 31.9102724,16.2303562 31.9102724,17.6924932 C31.9102724,19.1546301 30.7552957,20.3452055 29.3368771,20.3452055 L26.2487176,20.3452055 C24.830299,20.3452055 23.6753223,19.1546301 23.6753223,17.6924932 L23.6753223,16.1008219 L21.6164784,16.1008219 L21.6164784,17.6924932 C21.6164784,20.3250411 23.6948837,22.4675068 26.2487176,22.4675068 L26.7634817,22.4675068 L26.7634817,24.5898082 L28.8223256,24.5898082 L28.8223256,22.4675068 L29.3370897,22.4675068 C31.8909236,22.4675068 33.9693289,20.3250411 33.9693289,17.6924932 C33.9693289,15.0599452 31.8909236,12.9174795 29.3370897,12.9174795 L26.2489302,12.9174795 C24.8305116,12.9174795 23.6755349,11.7269041 23.6755349,10.2647671 C23.6755349,8.80263014 24.8305116,7.61205479 26.2489302,7.61205479 L29.3370897,7.61205479 C30.7555083,7.61205479 31.910485,8.80263014 31.910485,10.2647671 L31.910485,11.8564384 L33.9693289,11.8564384 Z" id="Shape" stroke="#5191FA" fill="#FFFFFF"></path>
                        <path d="M43.0711495,31.5294247 C43.0813555,31.5125479 44.1127973,29.8952329 46.3219668,29.8952329 C48.489887,29.8952329 49.5347243,31.4698082 49.5727841,31.5294247 C49.7694618,31.8456986 50.101794,32.0175342 50.440505,32.0175342 C50.6310166,32.0175342 50.8234419,31.9633973 50.9952425,31.849863 C51.4738605,31.533589 51.6129169,30.8769315 51.3060997,30.3833425 C51.2391229,30.2761644 49.6425249,27.7729315 46.3219668,27.7729315 C43.0014086,27.7729315 41.404598,30.2761644 41.3378339,30.3833425 C41.0310166,30.8767123 41.1700731,31.5324932 41.648691,31.849863 C42.1262458,32.1650411 42.7634817,32.0227945 43.0711495,31.5294247 Z" id="Shape" stroke="#FFFFFF" stroke-width="0.5" fill="#333333"></path>
                    </g>
                </g>
            </g>
        </g>
    </g>
</svg>