<svg width="24px" height="24px" viewBox="0 0 23 24" version="1.1" xmlns="http://www.w3.org/2000/svg" xmlns:xlink="http://www.w3.org/1999/xlink">
    <!-- Generator: Sketch 53.2 (72643) - https://sketchapp.com -->
    
    <desc>Created with Sketch.</desc>
    <g id="Page-1" stroke="none" stroke-width="1" fill="none" fill-rule="evenodd">
        <g id="01_Detail" transform="translate(-391.000000, -1357.000000)" fill="#5E6D77" fill-rule="nonzero">
            <g id="tour-detail" transform="translate(0.000000, 161.000000)">
                <g id="airbag" transform="translate(391.000000, 1196.000000)">
                    <path d="M22.68285,21.7172 L19.60005,18.6344 L19.60005,8.3808 C19.59895,7.28745 18.713,6.4013 17.61965,6.4 L15.98045,6.4 C14.8871,6.4013 14.00115,7.28745 14.00005,8.3808 L14.00005,13.0344 L13.08285,12.1172 C12.92665,11.96105 12.67345,11.96105 12.51725,12.1172 L11.31725,13.3172 C11.1611,13.4734 11.1611,13.7266 11.31725,13.8828 L14.00005,16.5656 L14.00005,18.4 L6.77045,18.4 C5.462,18.4013 4.4016,19.46155 4.40005,20.77 L4.40005,21.63 C4.4016,22.93845 5.462,23.9987 6.77045,24 L17.61965,24 C18.65925,23.99715 19.5189,23.1894 19.58645,22.152 L20.91725,23.4828 C21.07345,23.63895 21.32665,23.63895 21.48285,23.4828 L22.68285,22.2828 C22.839,22.1266 22.839,21.8734 22.68285,21.7172 Z M14.80005,8.3808 C14.8007,7.7291 15.32875,7.2009 15.98045,7.2 L17.62045,7.2 C18.27185,7.2013 18.7994,7.7294 18.80005,8.3808 L18.80005,17.8344 L14.80005,13.8344 L14.80005,8.3808 Z M18.80005,22.0192 C18.7994,22.6709 18.27135,23.1991 17.61965,23.2 L6.77045,23.2 C5.90365,23.1991 5.20115,22.4968 5.20005,21.63 L5.20005,20.77 C5.20115,19.9032 5.90365,19.2009 6.77045,19.2 L14.40005,19.2 C14.62095,19.2 14.80005,19.0209 14.80005,18.8 L14.80005,17.3656 L18.80005,21.3656 L18.80005,22.0192 Z M21.20005,22.6344 L12.16565,13.6 L12.80005,12.9656 L21.83445,22 L21.20005,22.6344 Z" id="Shape"></path>
                    <path d="M17.21485,0 L16.38525,0 C15.51015,0.0009 14.80095,0.7101 14.80005,1.5852 L14.80005,4.0148 C14.80095,4.8899 15.51015,5.5991 16.38525,5.6 L17.21485,5.6 C18.08995,5.5991 18.79915,4.8899 18.80005,4.0148 L18.80005,1.5852 C18.79915,0.7101 18.08995,0.0009 17.21485,0 Z M18.00005,4.0148 C17.9994,4.4482 17.64825,4.79935 17.21485,4.8 L16.38525,4.8 C15.95185,4.79935 15.6007,4.4482 15.60005,4.0148 L15.60005,1.5852 C15.6007,1.1518 15.95185,0.80065 16.38525,0.8 L17.21485,0.8 C17.64825,0.80065 17.9994,1.1518 18.00005,1.5852 L18.00005,4.0148 Z" id="Shape"></path>
                    <path d="M7.62005,4.8 L5.18005,4.8 C4.4326,4.7985 3.7164,5.0998 3.19485,5.6352 L0.10845,8.9264 C0.03885,9.0005 0.0001,9.09835 5e-05,9.2 L5e-05,12.8 C0.0001,12.9105 0.04585,13.01605 0.12645,13.0916 L3.21045,15.982 C3.73115,16.50715 4.44055,16.80175 5.18005,16.8 L7.62005,16.8 C9.15465,16.79825 10.3983,15.5546 10.40005,14.02 L10.40005,7.58 C10.3983,6.0454 9.15465,4.80175 7.62005,4.8 Z M9.60005,14.02 C9.59875,15.11295 8.71305,15.99865 7.62005,16 L5.18005,16 C4.6487,16.00025 4.13955,15.78675 3.76725,15.4076 L0.80005,12.6268 L0.80005,9.36 L3.77165,6.1912 C4.14205,5.8121 4.65,5.59885 5.18005,5.6 L7.62005,5.6 C8.713,5.6013 9.59875,6.487 9.60005,7.58 L9.60005,14.02 Z" id="Shape"></path>
                    <polygon id="Rectangle" transform="translate(3.197633, 10.005820) rotate(-18.415019) translate(-3.197633, -10.005820) " points="1.93232431 9.60571717 4.46294234 9.60571717 4.46294234 10.4059229 1.93232431 10.4059229"></polygon>
                    <polygon id="Rectangle" transform="translate(3.201345, 12.001694) rotate(-71.566863) translate(-3.201345, -12.001694) " points="2.80134213 10.736685 3.60134778 10.736685 3.60134778 13.2667029 2.80134213 13.2667029"></polygon>
                </g>
            </g>
        </g>
    </g>
</svg>