<svg width="24px" height="24px" viewBox="0 0 24 24" version="1.1" xmlns="http://www.w3.org/2000/svg" xmlns:xlink="http://www.w3.org/1999/xlink">
    <!-- Generator: Sketch 49 (51002) - http://www.bohemiancoding.com/sketch -->
    
    <desc>Created with Sketch.</desc>
    <defs></defs>
    <g id="Hotel-layout" stroke="none" stroke-width="1" fill="none" fill-rule="evenodd" stroke-linecap="round" stroke-linejoin="round">
        <g id="Detail_1" transform="translate(-734.000000, -1439.000000)" stroke="#768090">
            <g id="hotel-detail" transform="translate(135.000000, 251.000000)">
                <g id="facilities" transform="translate(0.000000, 1087.000000)">
                    <g id="1" transform="translate(599.000000, 101.000000)">
                        <g id="Group">
                            <g id="ico_tv-disable">
                                <path d="M4.501,0.5 L9.501,5.5" id="Shape"></path>
                                <path d="M15.501,0.5 L10.501,5.5" id="Shape"></path>
                                <rect id="Rectangle-path" x="0.5" y="5.5" width="23" height="18" rx="2"></rect>
                                <rect id="Rectangle-path" x="2.5" y="7.5" width="15" height="14" rx="4"></rect>
                                <rect id="Rectangle-path" x="19.5" y="8.5" width="2" height="8" rx="0.5"></rect>
                                <path d="M12.828,11.672 L7.172,17.329" id="Shape"></path>
                                <path d="M14,14.5 C14,16.709139 12.209139,18.5 10,18.5 C7.790861,18.5 6,16.709139 6,14.5 C6,12.290861 7.790861,10.5 10,10.5 C12.209139,10.5 14,12.290861 14,14.5 Z" id="Shape"></path>
                                <circle id="Oval" cx="20.499" cy="19.995" r="1"></circle>
                            </g>
                        </g>
                    </g>
                </g>
            </g>
        </g>
    </g>
</svg>