<svg width="24px" height="24px" viewBox="0 0 24 24" version="1.1" xmlns="http://www.w3.org/2000/svg" xmlns:xlink="http://www.w3.org/1999/xlink">
    <!-- Generator: Sketch 53.2 (72643) - https://sketchapp.com -->
    
    <desc>Created with Sketch.</desc>
    <g id="Page-1" stroke="none" stroke-width="1" fill="none" fill-rule="evenodd">
        <g id="01_Detail" transform="translate(-390.000000, -1394.000000)" fill="#5E6D77" fill-rule="nonzero">
            <g id="tour-detail" transform="translate(0.000000, 161.000000)">
                <g id="sensor" transform="translate(390.000000, 1233.000000)">
                    <path d="M10.8,14.4 L10.8,11.6968 C10.7998,9.2132 8.7864,7.2 6.3028,7.2 L5.6972,7.2 C3.2136,7.2 1.2002,9.2132 1.2,11.6968 L1.2,14.4 L0,14.4 L0,15.2 L1.2,15.2 L1.2,21.2204 C1.20155,22.7549 2.4451,23.99845 3.9796,24 L8.0196,24 C9.5544,23.9989 10.79845,22.7552 10.8,21.2204 L10.8,15.2 L12,15.2 L12,14.4 L10.8,14.4 Z M8,8.4128 C9.07075,8.9649 9.8038,10.0058 9.9628,11.2 L8.9656,11.2 L8,10.2344 L8,8.4128 Z M3.0828,9.0828 C3.3522,8.81355 3.6616,8.58755 4,8.4128 L4,10.2344 L3.0344,11.2 L2.0372,11.2 C2.14265,10.39825 2.51025,9.65385 3.0828,9.0828 Z M10,21.2204 C9.9989,22.31325 9.11325,23.1989 8.0204,23.2 L3.9804,23.2 C2.88725,23.19935 2.0011,22.31355 2,21.2204 L2,12 L3.2,12 C3.3061,12 3.4078,11.9578 3.4828,11.8828 L4.6828,10.6828 C4.7578,10.6078 4.8,10.5061 4.8,10.4 L4.8,8.1136 C5.0933,8.03925 5.3946,8.0011 5.6972,8 L6.3028,8 C6.6054,8.00105 6.9067,8.0392 7.2,8.1136 L7.2,10.4 C7.2,10.5061 7.2422,10.6078 7.3172,10.6828 L8.5172,11.8828 C8.5922,11.9578 8.6939,12 8.8,12 L10,12 L10,21.2204 Z" id="Shape"></path>
                    <path d="M23.2,0 L23.2,4.822 C23.19935,5.4723 22.6723,5.99935 22.022,6 L16.378,6 C15.7277,5.99935 15.20065,5.4723 15.2,4.822 L15.2,0 L14.4,0 L14.4,4.822 C14.4013,5.91385 15.28615,6.7987 16.378,6.8 L22.022,6.8 C23.11385,6.7987 23.9987,5.91385 24,4.822 L24,0 L23.2,0 Z" id="Path"></path>
                    <path d="M9.00625,14.05705 C8.97615,14.03895 8.94375,14.02485 8.91,14.0152 C7.0081,13.4716 4.9919,13.4716 3.09,14.0152 C2.9704,14.04945 2.87355,14.13745 2.828,14.2532 C2.78235,14.36895 2.7931,14.49935 2.8572,14.606 L4.0572,16.606 C4.1295,16.72635 4.2596,16.79995 4.4,16.8 L7.6,16.8 C7.7404,16.79995 7.8705,16.72635 7.9428,16.606 L9.1428,14.606 C9.2567,14.4167 9.19555,14.17095 9.00625,14.05705 Z M7.3736,16 L4.6264,16 L3.8188,14.654 C5.25415,14.3249 6.7454,14.32485 8.1808,14.6539 L7.3736,16 Z" id="Shape"></path>
                    <path d="M13.6,5.2 L12.8,5.2 C12.802,6.9665 14.2335,8.398 16,8.4 L16,7.6 C14.67505,7.5987 13.6013,6.52495 13.6,5.2 Z" id="Path"></path>
                    <path d="M12,5.2 L11.2,5.2 C11.20285,7.8498 13.3502,9.99715 16,10 L16,9.2 C13.79185,9.19755 12.00245,7.40815 12,5.2 Z" id="Path"></path>
                    <path d="M10.4,5.2 L9.6,5.2 C9.6042,8.7329 12.4671,11.5958 16,11.6 L16,10.8 C12.9086,10.7967 10.4033,8.2914 10.4,5.2 Z" id="Path"></path>
                    <path d="M9.12,20.56 L7.92,18.96 C7.84445,18.8593 7.7259,18.8 7.6,18.8 L4.4,18.8 C4.2741,18.8 4.15555,18.8593 4.08,18.96 L2.88,20.56 C2.74745,20.73675 2.78325,20.98745 2.96,21.12 C3.02925,21.17195 3.11345,21.2 3.2,21.2 L8.8,21.2 C9.0209,21.2 9.2,21.0209 9.2,20.8 C9.2,20.71345 9.17195,20.62925 9.12,20.56 Z M4,20.4 L4.6,19.6 L7.4,19.6 L8,20.4 L4,20.4 Z" id="Shape"></path>
                    <path d="M22.3716,3.0516 L21.6,1.1228 L21.6,0 L20.8,0 L20.8,0.8 L17.6,0.8 L17.6,0 L16.8,0 L16.8,1.1228 L16.0284,3.0516 C15.94645,3.25675 16.0463,3.4895 16.25145,3.57145 C16.2987,3.59035 16.3491,3.6 16.4,3.6 L22,3.6 C22.2209,3.6001 22.40005,3.42105 22.40015,3.20015 C22.40015,3.14925 22.3905,3.09885 22.3716,3.0516 Z M16.9908,2.8 L17.4708,1.6 L20.9292,1.6 L21.4092,2.8 L16.9908,2.8 Z" id="Shape"></path>
                    <rect id="Rectangle" x="16" y="4.4" width="1.2" height="1"></rect>
                    <rect id="Rectangle" x="21.2" y="4.4" width="1.2" height="1"></rect>
                </g>
            </g>
        </g>
    </g>
</svg>