<svg width="24px" height="24px" viewBox="0 0 23 24" version="1.1" xmlns="http://www.w3.org/2000/svg" xmlns:xlink="http://www.w3.org/1999/xlink">
    <!-- Generator: Sketch 53.2 (72643) - https://sketchapp.com -->
    
    <desc>Created with Sketch.</desc>
    <g id="Page-1" stroke="none" stroke-width="1" fill="none" fill-rule="evenodd">
        <g id="01_Detail" transform="translate(-337.000000, -1314.000000)" fill="#5E6D77" fill-rule="nonzero">
            <g id="tour-detail" transform="translate(0.000000, 161.000000)">
                <g id="speed" transform="translate(337.000000, 1153.000000)">
                    <path d="M17.89255,2.65975 C15.92555,0.9447 13.4041,-0.00015 10.79445,0 C4.82975,0.00615 -0.0006,4.84645 0.0056,10.81115 C0.01175,16.7758 4.85205,21.60615 10.81675,21.6 C11.63545,21.59915 12.4514,21.5052 13.24885,21.32 L13.06765,20.5412 C7.68725,21.7993 2.3057,18.4576 1.0476,13.07725 C-0.21055,7.69685 3.1312,2.3153 8.51155,1.0572 C13.8919,-0.2009 19.2735,3.1408 20.5316,8.52115 C21.26405,11.6534 20.44575,14.9468 18.33245,17.372 L18.93525,17.8976 C22.8551,13.40185 22.3883,6.5796 17.89255,2.65975 Z" id="Path"></path>
                    <path d="M10.79445,2 C5.93435,2 1.99445,5.9399 1.99445,10.8 C1.99445,15.6601 5.93435,19.6 10.79445,19.6 C15.65225,19.5945 19.58895,15.6578 19.59445,10.8 C19.59445,5.9399 15.65455,2 10.79445,2 Z M10.79445,18.8 C6.37615,18.8 2.79445,15.2183 2.79445,10.8 C2.79445,6.3817 6.37615,2.8 10.79445,2.8 C15.21275,2.8 18.79445,6.3817 18.79445,10.8 C18.78935,15.21615 15.2106,18.79495 10.79445,18.8 Z" id="Shape"></path>
                    <path d="M14.26605,7.8944 L15.07725,7.0828 L14.51165,6.5172 L13.66605,7.3628 C11.55195,5.7718 8.5484,6.1958 6.95735,8.3099 C6.3305,9.14285 5.9924,10.15755 5.99445,11.2 L6.79445,11.2 C6.7912,8.9942 8.5767,7.20335 10.7825,7.2001 C11.6108,7.19885 12.41905,7.4552 13.09525,7.9336 L11.60205,9.4268 C11.35825,9.27975 11.0792,9.2014 10.79445,9.2 C9.9108,9.2 9.19445,9.91635 9.19445,10.8 C9.19445,11.68365 9.9108,12.4 10.79445,12.4 C11.6781,12.4 12.39445,11.68365 12.39445,10.8 C12.39305,10.51525 12.3147,10.2362 12.16765,9.9924 L13.70045,8.4596 C14.40255,9.1993 14.7941,10.18015 14.79445,11.2 L15.59445,11.2 C15.59425,9.9681 15.11835,8.78385 14.26605,7.8944 Z M10.79445,11.6 C10.3526,11.6 9.99445,11.24185 9.99445,10.8 C9.99445,10.35815 10.3526,10 10.79445,10 C11.2363,10 11.59445,10.35815 11.59445,10.8 C11.59445,11.24185 11.23625,11.6 10.79445,11.6 Z" id="Shape"></path>
                    <rect id="Rectangle" x="10.39445" y="4" width="1" height="1"></rect>
                    <polygon id="Rectangle" transform="translate(7.593934, 5.258023) rotate(-29.992901) translate(-7.593934, -5.258023) " points="7.19392857 4.85801751 7.99394025 4.85801751 7.99394025 5.65802919 7.19392857 5.65802919"></polygon>
                    <polygon id="Rectangle" transform="translate(5.251320, 7.598772) rotate(-60.007099) translate(-5.251320, -7.598772) " points="4.85131454 7.19876662 5.65132623 7.19876662 5.65132623 7.99877831 4.85131454 7.99877831"></polygon>
                    <rect id="Rectangle" x="3.99445" y="10.4" width="1" height="1"></rect>
                    <rect id="Rectangle" x="16.79445" y="10.4" width="1" height="1"></rect>
                    <polygon id="Rectangle" transform="translate(16.337079, 7.600622) rotate(-29.992901) translate(-16.337079, -7.600622) " points="15.9370733 7.20061614 16.737085 7.20061614 16.737085 8.00062782 15.9370733 8.00062782"></polygon>
                    <polygon id="Rectangle" transform="translate(13.993111, 5.257880) rotate(-60.007099) translate(-13.993111, -5.257880) " points="13.5931051 4.85787449 14.3931168 4.85787449 14.3931168 5.65788618 13.5931051 5.65788618"></polygon>
                    <path d="M9.52085,14.8 C9.35195,14.32225 8.90115,14.0021 8.39445,14 C7.7317,13.99725 7.19225,14.5323 7.1895,15.195 C7.18675,15.85775 7.7218,16.3972 8.3845,16.39995 C8.89485,16.40205 9.3507,16.08115 9.52085,15.59995 L11.99445,15.59995 L11.99445,16.39995 L12.79445,16.39995 L12.79445,15.59995 L13.59445,15.59995 L13.59445,16.39995 L14.39445,16.3999602 L14.39445,14.79995 L9.52085,14.79995 L9.52085,14.8 Z M8.39445,15.6 C8.17355,15.6 7.99445,15.4209 7.99445,15.2 C7.99445,14.9791 8.17355,14.8 8.39445,14.8 C8.61535,14.8 8.79445,14.9791 8.79445,15.2 C8.79445,15.4209 8.61535,15.6 8.39445,15.6 Z" id="Shape"></path>
                    <path d="M20.79445,18.4 L15.99445,18.4 C15.77355,18.4 15.59445,18.5791 15.59445,18.8 L15.59445,23.6 C15.59445,23.8209 15.77355,24 15.99445,24 L20.79445,24 C21.01535,24 21.19445,23.8209 21.19445,23.6 L21.19445,18.8 C21.19445,18.5791 21.01535,18.4 20.79445,18.4 Z M20.39445,23.2 L16.39445,23.2 L16.39445,19.2 L20.39445,19.2 L20.39445,23.2 Z" id="Shape"></path>
                    <path d="M18.79445,20.8 L18.79445,21.6 L17.99445,21.6 L17.99445,20.8 L18.79445,20.8 L18.79445,20 L17.59445,20 C17.37355,20 17.19445,20.1791 17.19445,20.4 L17.19445,22 C17.19445,22.2209 17.37355,22.4 17.59445,22.4 L19.19445,22.4 C19.41535,22.4 19.59445,22.2209 19.59445,22 L19.59445,20.8 L18.79445,20.8 Z" id="Path"></path>
                    <rect id="Rectangle" x="21.99445" y="19.2" width="1" height="1"></rect>
                    <rect id="Rectangle" x="21.99445" y="20.8" width="1" height="1"></rect>
                    <rect id="Rectangle" x="21.99445" y="22.4" width="1" height="1"></rect>
                    <rect id="Rectangle" x="13.99445" y="19.2" width="1" height="1"></rect>
                    <rect id="Rectangle" x="13.99445" y="20.8" width="1" height="1"></rect>
                    <rect id="Rectangle" x="13.99445" y="22.4" width="1" height="1"></rect>
                </g>
            </g>
        </g>
    </g>
</svg>