<svg width="24px" height="24px" viewBox="0 0 24 24" version="1.1" xmlns="http://www.w3.org/2000/svg" xmlns:xlink="http://www.w3.org/1999/xlink">
    <!-- Generator: Sketch 53.2 (72643) - https://sketchapp.com -->
    
    <desc>Created with Sketch.</desc>
    <g id="Page-1" stroke="none" stroke-width="1" fill="none" fill-rule="evenodd">
        <g id="01_Detail" transform="translate(-367.000000, -1436.000000)" fill="#5E6D77" fill-rule="nonzero">
            <g id="tour-detail" transform="translate(0.000000, 161.000000)">
                <g id="steering-wheel" transform="translate(367.000000, 1275.000000)">
                    <path d="M12,0 C5.3726,0 0,5.3726 0,12 C0,18.6274 5.3726,24 12,24 C18.6274,24 24,18.6274 24,12 C23.9925,5.3757 18.6243,0.0075 12,0 Z M7.63125,1.68605 C13.32685,-0.7268 19.9,1.93445 22.3128,7.63005 C23.49575,10.42245 23.49575,13.5752 22.3128,16.3676 L20.498,15.52 C22.44465,10.8267 20.2181,5.4439 15.52475,3.49725 C10.83145,1.55055 5.44865,3.77715 3.502,8.4705 C2.566,10.72715 2.566,13.2634 3.502,15.52005 L1.6872,16.36765 C-0.7256,10.672 1.93565,4.09885 7.63125,1.68605 Z M13.9996,18.81995 C14.00095,19.25495 14.04665,19.6887 14.136,20.1144 C12.73745,20.4952 11.26255,20.4952 9.864,20.1144 C10.58995,16.65515 8.37415,13.26235 4.91485,12.5364 C4.4891,12.44705 4.0554,12.40135 3.6204,12.4 C3.614,12.2672 3.6,12.1352 3.6,12 C3.60075,11.1871 3.7199,10.3786 3.9536,9.6 L20.0464,9.6 C20.2801,10.3786 20.39925,11.1871 20.4,12 C20.4,12.1352 20.386,12.2672 20.3796,12.4 C16.845,12.41105 13.98855,15.28535 13.9996,18.81995 Z M20.304,13.2048 C19.8581,16.24715 17.7874,18.8036 14.904,19.8716 C14.3111,16.83955 16.28845,13.90095 19.3205,13.30805 C19.64465,13.24465 19.97375,13.2101 20.304,13.2048 Z M9.20005,18.8881 C9.19475,19.21835 9.1602,19.54745 9.0968,19.8716 C6.2134,18.8036 4.1427,16.24715 3.6968,13.2048 C6.7859,13.2545 9.24975,15.799 9.20005,18.8881 Z M4.2368,8.8 C6.0011,4.5125 10.9071,2.46705 15.1946,4.2314 C17.266,5.0838 18.91085,6.72865 19.7632,8.8 L4.2368,8.8 Z M2.0292,17.0908 L3.8424,16.2456 C3.96665,16.48375 4.10105,16.7156 4.2456,16.9412 L3.3704,17.554 L3.8296,18.2096 L4.7052,17.5964 C4.86895,17.80975 5.04105,18.0152 5.2216,18.2128 L4.5172,18.9172 L5.0828,19.4828 L5.7872,18.7784 C5.9848,18.95975 6.19025,19.13185 6.4036,19.2948 L5.832,20.1112 L6.4872,20.5704 L7.0588,19.7544 C7.2844,19.8984 7.51625,20.0328 7.7544,20.1576 L6.9092,21.9708 C4.81215,20.8946 3.1054,19.18785 2.0292,17.0908 Z M7.634,22.3128 L7.6324,22.3128 L8.48,20.498 C10.73445,21.434 13.26875,21.434 15.5232,20.498 L16.3692,22.3128 C13.5776,23.4957 10.4256,23.4957 7.634,22.3128 Z M17.0908,21.9708 L17.0908,21.9708 L16.2456,20.1576 C16.48375,20.03305 16.7156,19.89865 16.9412,19.7544 L17.5248,20.5876 L18.18,20.1284 L17.5964,19.2948 C17.80975,19.13135 18.0152,18.9592 18.2128,18.7784 L18.9328,19.4984 L19.4984,18.9328 L18.7784,18.2128 C18.95975,18.0152 19.13185,17.80975 19.2948,17.5964 L20.1704,18.2096 L20.6296,17.554 L19.7544,16.9412 C19.8984,16.7156 20.0328,16.48375 20.1576,16.2456 L21.9708,17.0908 C20.8946,19.18785 19.18785,20.8946 17.0908,21.9708 Z" id="Shape"></path>
                    <path d="M14.68595,10.91915 C14.6105,10.84265 14.50745,10.7997 14.4,10.8 L9.6,10.8 C9.3791,10.8009 9.20075,10.98075 9.20165,11.20165 C9.2021,11.3058 9.2431,11.40565 9.316,11.48 L11.7064,13.8916 C11.78105,13.96775 11.883,14.01095 11.9896,14.0116 C12.0957,14.0116 12.1974,13.9694 12.2724,13.8944 L14.682,11.4848 C14.8393,11.3297 14.84105,11.0764 14.68595,10.91915 Z M11.9916,13.0428 L10.56,11.6 L13.4344,11.6 L11.9916,13.0428 Z" id="Shape"></path>
                    <rect id="Rectangle" x="15.6" y="10.8" width="1" height="1"></rect>
                    <rect id="Rectangle" x="17.2" y="10.8" width="1" height="1"></rect>
                    <rect id="Rectangle" x="6" y="10.8" width="1" height="1"></rect>
                    <rect id="Rectangle" x="7.6" y="10.8" width="1" height="1"></rect>
                    <rect id="Rectangle" x="11.6" y="18.8" width="1" height="1"></rect>
                    <rect id="Rectangle" x="11.6" y="15.2" width="1" height="2.8"></rect>
                </g>
            </g>
        </g>
    </g>
</svg>