<svg width="24px" height="24px" viewBox="0 0 21 24" version="1.1" xmlns="http://www.w3.org/2000/svg" xmlns:xlink="http://www.w3.org/1999/xlink">
    <!-- Generator: Sketch 53.2 (72643) - https://sketchapp.com -->
    
    <desc>Created with Sketch.</desc>
    <g id="Page-1" stroke="none" stroke-width="1" fill="none" fill-rule="evenodd">
        <g id="01_Detail" transform="translate(-438.000000, -1423.000000)" fill="#5E6D77" fill-rule="nonzero">
            <g id="tour-detail" transform="translate(0.000000, 161.000000)">
                <g id="room-service" transform="translate(135.000000, 1097.000000)">
                    <g id="1" transform="translate(303.000000, 165.000000)">
                        <g id="car">
                            <path d="M20.2144,9.6488 L12.3232,1.7576 C11.2004,0.62845 9.6724,-0.0045 8.08,7.10542058e-16 L2,7.10542058e-16 C0.896,0.00135 0.00135,0.896 0,2 L0,23.6 C0,23.8209 0.1791,24 0.4,24 L12.1752,24 C13.1998,23.99995 14.14255,23.4403 14.6332,22.5408 C15.71715,20.55165 17.35165,18.91715 19.3408,17.8332 C20.2403,17.34255 20.79995,16.3998 20.8,15.3752 L20.8,11.0628 C20.8015,10.5322 20.59065,10.023 20.2144,9.6488 Z M20,15.3752 C20.00005,16.1072 19.60025,16.78075 18.9576,17.1312 C16.83345,18.2882 15.0882,20.03345 13.9312,22.1576 C13.5807,22.80025 12.9072,23.20005 12.1752,23.2 L0.8,23.2 L0.8,2 C0.8,1.33725 1.33725,0.8 2,0.8 L8.08,0.8 C9.45995,0.79625 10.7841,1.34475 11.7572,2.3232 L19.6488,10.2144 C19.87295,10.43995 19.99915,10.7448 20,11.0628 L20,15.3752 Z" id="Shape"></path>
                            <path d="M18.2828,10.1172 L11.0544,2.8888 C10.2311,2.0609 9.1108,1.59685 7.9432,1.6 L2.8,1.6 C2.13725,1.6 1.6,2.13725 1.6,2.8 L1.6,10.4 C1.6,10.6209 1.7791,10.8 2,10.8 L18,10.8 C18.16175,10.80005 18.30765,10.70265 18.3696,10.5532 C18.43155,10.4037 18.39725,10.2316 18.2828,10.1172 Z M12,10 L2.4,10 L2.4,2.8 C2.4,2.5791 2.5791,2.4 2.8,2.4 L7.9432,2.4 C8.8985,2.3974 9.81515,2.77705 10.4888,3.4544 L12,4.9656 L12,10 Z M12.8,10 L12.8,5.7656 L17.0344,10 L12.8,10 Z" id="Shape"></path>
                            <path d="M17.2,12 L14.8,12 C14.13725,12 13.6,12.53725 13.6,13.2 C13.6,13.86275 14.13725,14.4 14.8,14.4 L17.2,14.4 C17.86275,14.4 18.4,13.86275 18.4,13.2 C18.4,12.5373 17.86275,12 17.2,12 Z M17.2,13.6 L14.8,13.6 C14.5791,13.6 14.4,13.4209 14.4,13.2 C14.4,12.9791 14.5791,12.8 14.8,12.8 L17.2,12.8 C17.4209,12.8 17.6,12.9791 17.6,13.2 C17.6,13.4209 17.4209,13.6 17.2,13.6 Z" id="Shape"></path>
                        </g>
                    </g>
                </g>
            </g>
        </g>
    </g>
</svg>