<?xml version="1.0" encoding="UTF-8"?>
<svg width="16px" height="16px" viewBox="0 0 16 16" version="1.1" xmlns="http://www.w3.org/2000/svg" xmlns:xlink="http://www.w3.org/1999/xlink">
    <!-- Generator: sketchtool 53.2 (72643) - https://sketchapp.com -->
    <desc>Created with sketchtool.</desc>
    <g id="Page-1" stroke="none" stroke-width="1" fill="none" fill-rule="evenodd">
        <g id="15_partner" transform="translate(-286.000000, -489.000000)" fill="#1CC9B7" fill-rule="nonzero">
            <g id="info" transform="translate(135.000000, 400.000000)">
                <g id="Group-3" transform="translate(150.000000, 53.000000)">
                    <g id="ico_vefified_1" transform="translate(1.000000, 36.000000)">
                        <path d="M14.7099074,6.0986072 L14.9290874,3.99928704 L13.000331,3.14103596 C12.9373202,3.11306134 12.8869387,3.06267982 12.858964,2.99980477 L12.0009845,1.07104846 L9.90125701,1.29050001 C9.83308578,1.29728995 9.76477876,1.27882125 9.70937268,1.23876048 L8.00006791,0 L6.29076311,1.23876048 C6.23522124,1.27882125 6.16691422,1.29728995 6.09887882,1.29050001 L3.99901546,1.07104846 L3.14103596,2.99980477 C3.11319713,3.06267982 3.06281561,3.11306134 2.99980477,3.14076438 L1.07104846,3.99928704 L1.29022839,6.0986072 C1.29728995,6.16677843 1.27895705,6.23522124 1.23876048,6.29076311 L0,8.00006791 L1.23876048,9.70937268 C1.27895705,9.76491459 1.29728995,9.8333574 1.29022839,9.90152859 L1.07104846,12.000713 L2.99980477,12.858964 C3.06267982,12.8869387 3.11306134,12.9373202 3.14103596,13.000331 L3.99901546,14.9290874 L6.09887882,14.7096358 C6.10824896,14.7096358 6.1180265,14.708142 6.12658186,14.708142 C6.18524712,14.708142 6.2422828,14.7267465 6.28967672,14.7613753 L8.00006791,16 L9.70937268,14.7613753 C9.76477876,14.721043 9.83308578,14.7025743 9.90125701,14.7096358 L12.0009845,14.9290874 L12.858964,13.000331 C12.8869387,12.9373202 12.9373202,12.8870745 13.000331,12.8592356 L14.9290874,12.000713 L14.7099074,9.90152859 C14.7027101,9.8333574 14.721043,9.76491459 14.7613753,9.70937268 L16,8.00006791 L14.7613753,6.29076311 C14.721043,6.23522124 14.7027101,6.16677843 14.7099074,6.0986072 L14.7099074,6.0986072 Z M12.0346627,6.02731262 L6.52800436,11.5341068 C6.41936498,11.6426104 6.24336919,11.6426104 6.13472981,11.5341068 L3.77345296,9.17282998 C3.72117023,9.12068308 3.6918376,9.04979587 3.6918376,8.9759211 C3.6918376,8.90204632 3.72117023,8.83115914 3.77345296,8.77901224 L4.56054525,7.99477173 C4.66904883,7.88653976 4.84477301,7.88653976 4.95327659,7.99477173 L6.33136709,9.37001045 L10.8542959,4.84708158 C10.9629353,4.73844221 11.1389311,4.73844221 11.2475705,4.84708158 L12.0346627,5.63403808 C12.1433021,5.74267745 12.1433021,5.91880904 12.0346627,6.02731262 Z" id="Shape"></path>
                    </g>
                </g>
            </g>
        </g>
    </g>
</svg>