<svg width="22px" height="22px" viewBox="0 0 21 22" version="1.1" xmlns="http://www.w3.org/2000/svg" xmlns:xlink="http://www.w3.org/1999/xlink">
    <!-- Generator: Sketch 53.2 (72643) - https://sketchapp.com -->
    
    <desc>Created with Sketch.</desc>
    <g id="Page-1" stroke="none" stroke-width="1" fill="none" fill-rule="evenodd">
        <g id="01_Home" transform="translate(-259.000000, -2015.000000)" fill="#1A2B50" fill-rule="nonzero" stroke="#FFFFFF" stroke-width="0.2">
            <g id="trending-car" transform="translate(135.000000, 1603.000000)">
                <g id="one_tour" transform="translate(0.000000, 86.000000)">
                    <g id="tour">
                        <g id="suitcase" transform="translate(125.000000, 326.000000)">
                            <g id="Group-2" transform="translate(0.000000, 1.042132)">
                                <path d="M19.4092827,14.3460535 L17.8059072,14.3460535 C18.1347914,13.9961395 18.3161389,13.5329174 18.3122363,13.0527202 L18.3122363,4.57107461 C18.3122363,3.503986 17.4504219,2.61609571 16.3833333,2.61609571 L12.9535865,2.61609571 L12.9535865,1.22748811 C12.9537382,0.899854993 12.8228435,0.585770667 12.5900649,0.355211302 C12.3572864,0.124651936 12.0419626,-0.00322816269 11.714346,6.19501863e-05 L8.03248945,6.19501863e-05 C7.70487282,-0.00322816269 7.38954907,0.124651936 7.1567705,0.355211302 C6.92399193,0.585770667 6.79309722,0.899854993 6.79324895,1.22748811 L6.79324895,2.61609571 L3.36350211,2.61609571 C2.2964135,2.61609571 1.43459916,3.503986 1.43459916,4.57107461 L1.43459916,13.0527202 C1.43069655,13.5329174 1.61204409,13.9961395 1.94092827,14.3460535 L0.337552743,14.3460535 C0.151139241,14.3460535 0,14.5142392 0,14.7004839 L0,16.7679944 C0,16.9544501 0.151139241,17.0886695 0.337552743,17.0886695 L2.03135021,17.0886695 C1.53379016,17.5396946 1.36504995,18.2503908 1.60676195,18.8769408 C1.84847395,19.5034908 2.45080526,19.9167212 3.12236287,19.9167212 C3.79392048,19.9167212 4.39625179,19.5034908 4.63796379,18.8769408 C4.87967579,18.2503908 4.71093558,17.5396946 4.21337553,17.0886695 L15.5334599,17.0886695 C15.0358999,17.5396946 14.8671597,18.2503908 15.1088717,18.8769408 C15.3505837,19.5034908 15.952915,19.9167212 16.6244726,19.9167212 C17.2960302,19.9167212 17.8983615,19.5034908 18.1400735,18.8769408 C18.3817855,18.2503908 18.2130453,17.5396946 17.7154852,17.0886695 L19.4092827,17.0886695 C19.5956962,17.0886695 19.7468354,16.9546189 19.7468354,16.7679944 L19.7468354,14.7004839 C19.7468354,14.5142392 19.5956962,14.3460535 19.4092827,14.3460535 Z M3.12236287,19.2574459 C2.5980419,19.2574459 2.17299578,18.8323998 2.17299578,18.3080788 C2.17299578,17.7837579 2.5980419,17.3587117 3.12236287,17.3587117 C3.64668383,17.3587117 4.07172996,17.7837579 4.07172996,18.3080788 C4.07112541,18.8321492 3.64643322,19.2568414 3.12236287,19.2574459 L3.12236287,19.2574459 Z M16.6244726,19.2574459 C16.1001516,19.2574459 15.6751055,18.8323998 15.6751055,18.3080788 C15.6751055,17.7837579 16.1001516,17.3587117 16.6244726,17.3587117 C17.1487935,17.3587117 17.5738397,17.7837579 17.5738397,18.3080788 C17.5732351,18.8321492 17.1485429,19.2568414 16.6244726,19.2574459 Z M14.8523207,3.29120119 L14.8523207,14.3038594 L4.89451477,14.3038594 L4.89451477,3.29120119 L14.8523207,3.29120119 Z M17.6371308,4.57107461 L17.6371308,13.0527202 C17.6378305,13.3852181 17.5058736,13.7042605 17.2705122,13.939123 C17.0351508,14.1739854 16.715829,14.3052648 16.3833333,14.3038594 L15.5274262,14.3038706 L15.5274262,3.29120119 L16.3833333,3.29120119 C17.0781857,3.29120119 17.6371308,3.87622229 17.6371308,4.57107461 Z M7.46835443,1.22748811 C7.46800611,1.07883593 7.52771647,0.936345366 7.63393609,0.832350243 C7.7401557,0.72835512 7.88387793,0.67167347 8.03248945,0.675167435 L11.714346,0.675167435 C11.8629575,0.67167347 12.0066797,0.72835512 12.1128994,0.832350243 C12.219119,0.936345366 12.2788293,1.07883593 12.278481,1.22748811 L12.2784825,2.61609571 L7.46835291,2.61609571 L7.46835443,1.22748811 Z M2.10970464,4.57107461 C2.10970464,3.87622229 2.66864979,3.29120119 3.36350211,3.29120119 L4.21940928,3.29120119 L4.21940928,14.3038706 L3.36350211,14.3038594 C3.03100643,14.3052648 2.71168464,14.1739854 2.47632322,13.939123 C2.2409618,13.7042605 2.10900499,13.3852181 2.10970464,13.0527202 L2.10970464,4.57107461 Z M19.07173,16.4135641 L0.675105485,16.4135641 L0.675105485,15.021159 L19.07173,15.021159 L19.07173,16.4135641 Z" id="Shape"></path>
                            </g>
                        </g>
                    </g>
                </g>
            </g>
        </g>
    </g>
</svg>