<svg width="22px" height="22px" viewBox="0 0 20 22" version="1.1" xmlns="http://www.w3.org/2000/svg" xmlns:xlink="http://www.w3.org/1999/xlink">
    <!-- Generator: Sketch 53.2 (72643) - https://sketchapp.com -->
    
    <desc>Created with Sketch.</desc>
    <g id="Page-1" stroke="none" stroke-width="1" fill="none" fill-rule="evenodd">
        <g id="01_Home" transform="translate(-309.000000, -2015.000000)" fill="#1A2B50" fill-rule="nonzero" stroke="#FFFFFF">
            <g id="trending-car" transform="translate(135.000000, 1603.000000)">
                <g id="one_tour" transform="translate(0.000000, 86.000000)">
                    <g id="tour">
                        <g id="suitcase" transform="translate(125.000000, 326.000000)">
                            <g id="Group-2" transform="translate(6.000000, 0.042132)">
                                <g id="Group">
                                    <g id="doors" transform="translate(44.000000, 0.957868)">
                                        <path d="M14.4049515,11.1208738 L14.4049515,8.15165049 L17.2397087,10.9865049 C17.3819417,11.1287379 17.5682524,11.1998058 17.7546602,11.1998058 C17.9409709,11.1998058 18.1273786,11.1287379 18.2696117,10.9865049 C18.5539806,10.7021359 18.5539806,10.241068 18.2696117,9.95679612 L14.4049515,6.09203883 L14.4049515,5.65330097 L14.4049515,2.16990291 C14.4049515,0.973398058 13.3596117,0 12.0748544,0 L6.49135922,0 C5.20660194,0 4.16126214,0.973398058 4.16126214,2.16990291 L4.16126214,5.65330097 L4.16126214,6.09203883 L0.296601942,9.95679612 C0.0122330097,10.241165 0.0122330097,10.702233 0.296601942,10.9865049 C0.438834951,11.1286408 0.625242718,11.1998058 0.811553398,11.1998058 C0.997864078,11.1998058 1.18427184,11.1287379 1.32650485,10.9865049 L4.16126214,8.15165049 L4.16126214,11.1209709 L0.296601942,14.9858252 C0.0122330097,15.2701942 0.0122330097,15.7312621 0.296699029,16.0156311 C0.438834951,16.1578641 0.625242718,16.228932 0.811553398,16.228932 C0.997864078,16.228932 1.18427184,16.1578641 1.32650485,16.0156311 L4.16126214,13.1806796 L4.16126214,15.6059223 L4.16126214,17.7557282 C4.16126214,18.952233 5.20660194,19.9256311 6.49135922,19.9256311 L12.0748544,19.9256311 C13.3596117,19.9256311 14.4049515,18.952233 14.4049515,17.7557282 L14.4049515,15.6058252 L14.4049515,13.1805825 L17.2397087,16.015534 C17.3819417,16.157767 17.5682524,16.228835 17.7546602,16.228835 C17.9409709,16.228835 18.1273786,16.157767 18.2695146,16.015534 C18.5539806,15.731165 18.5539806,15.2701942 18.2696117,14.9857282 L14.4049515,11.1208738 Z M12.9486408,11.4228155 L12.9486408,14.8776699 L5.61757282,14.8776699 L5.61757282,11.4228155 C5.61757282,11.4226214 5.61757282,11.4225243 5.61757282,11.4223301 L5.61757282,6.39417476 C5.61757282,6.3938835 5.61757282,6.39349515 5.61757282,6.39320388 L5.61757282,6.38145631 L12.9486408,6.38145631 L12.9486408,6.39320388 C12.9486408,6.39349515 12.9486408,6.3938835 12.9486408,6.39417476 L12.9486408,11.4223301 C12.9486408,11.4224272 12.9486408,11.4226214 12.9486408,11.4228155 Z M6.49135922,1.45631068 L12.0748544,1.45631068 C12.5485437,1.45631068 12.9486408,1.7831068 12.9486408,2.16990291 L12.9486408,4.92514563 L5.61757282,4.92514563 L5.61757282,2.16990291 C5.61757282,1.7831068 6.0176699,1.45631068 6.49135922,1.45631068 Z M12.0748544,18.4691262 L6.49135922,18.4691262 C6.0176699,18.4691262 5.61757282,18.1423301 5.61757282,17.755534 L5.61757282,16.3339806 L12.9486408,16.3339806 L12.9486408,17.7556311 C12.9486408,18.1424272 12.5485437,18.4691262 12.0748544,18.4691262 Z" id="Shape"></path>
                                    </g>
                                </g>
                            </g>
                        </g>
                    </g>
                </g>
            </g>
        </g>
    </g>
</svg>