<svg width="22px" height="22px" viewBox="0 0 23 20" version="1.1" xmlns="http://www.w3.org/2000/svg" xmlns:xlink="http://www.w3.org/1999/xlink">
    <!-- Generator: Sketch 53.2 (72643) - https://sketchapp.com -->
    
    <desc>Created with Sketch.</desc>
    <g id="Page-1" stroke="none" stroke-width="1" fill="none" fill-rule="evenodd">
        <g id="01_Home" transform="translate(-206.000000, -2016.000000)" fill="#1A2B50" fill-rule="nonzero" stroke="#FFFFFF" stroke-width="0.1">
            <g id="trending-car" transform="translate(135.000000, 1603.000000)">
                <g id="one_tour" transform="translate(0.000000, 86.000000)">
                    <g id="tour">
                        <g id="Group-3" transform="translate(70.000000, 327.000000)">
                            <g id="gear-shift" transform="translate(1.000000, 0.000000)">
                                <path d="M19.7745569,0.0513671801 L19.7745392,0.0514139099 C18.3074667,0.0512294327 17.0910913,1.18771017 16.9917569,2.65141594 C16.8924225,4.11512172 17.9440975,5.40552369 19.4409941,5.65309615 L19.3909941,9.66473167 L11.6307137,9.61473167 L11.6741302,5.60479315 C13.1303141,5.41137358 14.1868843,4.12166512 14.0899634,2.65589263 C13.9930424,1.19012015 12.7758553,0.0507588812 11.306882,0.0507588812 C9.83790863,0.0507588812 8.62072156,1.19012015 8.52380058,2.65589263 C8.4268796,4.12166512 9.4834498,5.41137358 10.9830502,5.65435784 L10.9330502,9.66473167 L3.17276982,9.61473167 L3.216023,5.60355344 C4.67176554,5.40530795 5.72422287,4.11193704 5.6224451,2.64628739 C5.52066733,1.18063775 4.2995449,0.0451489602 2.83037373,0.0500155897 C1.36120257,0.0548822192 0.147629469,1.19843593 0.055563751,2.66472769 C-0.0365019666,4.13101944 1.02450076,5.41738951 2.52510626,5.65557279 L2.48152666,14.3711402 C1.02497044,14.5597349 -0.0356560051,15.845726 0.056409469,17.3115528 C0.148474943,18.7773795 1.3616723,19.9205566 2.83037933,19.9254217 C4.29908636,19.9302868 5.51983056,18.7951721 5.62160501,17.3299875 C5.72337946,15.8648028 4.67129589,14.5718133 3.17276982,14.3240307 L3.22276982,10.3123952 L10.9830502,10.3623952 L10.9396337,14.3723337 C9.4834498,14.5657533 8.4268796,15.8554618 8.52380058,17.3212343 C8.62072156,18.7870067 9.83790863,19.926368 11.306882,19.926368 C12.7758553,19.926368 13.9930424,18.7870067 14.0899634,17.3212343 C14.1868843,15.8554618 13.1303141,14.5657533 11.6307137,14.3227691 L11.6807137,10.3123952 L19.7648259,10.3123952 C19.9436732,10.3123952 20.0886577,10.1674108 20.0886577,9.98856344 L20.1322559,5.60598431 C21.5910187,5.41766076 22.6527359,4.12876319 22.5582126,2.66093483 C22.4636894,1.19310648 21.2454256,0.0510321461 19.7745569,0.0513671801 Z M9.16538667,2.84062966 L9.16538664,2.84057279 C9.16538664,1.65785758 10.1241668,0.699077462 11.306882,0.699077462 C12.4895972,0.699077462 13.4483773,1.65785758 13.4483773,2.84057279 C13.4483773,4.023288 12.4895972,4.98206812 11.3068251,4.98206808 C10.1246987,4.98072339 9.16673136,4.02275601 9.16538667,2.84062966 Z M0.697723119,2.84062966 L0.697723087,2.84057279 C0.697723087,1.65785758 1.6565032,0.699077462 2.83921841,0.699077462 C4.02193362,0.699077462 4.98071374,1.65785758 4.98071374,2.84057279 C4.98071374,4.023288 4.02193362,4.98206812 2.83916154,4.98206808 C1.65703519,4.98072339 0.699067809,4.02275601 0.697723119,2.84062966 Z M4.98066698,17.1364972 L4.98066701,17.1365541 C4.98066701,18.0027125 4.45890325,18.7835824 3.65867542,19.1150424 C2.85844758,19.4465024 1.93734851,19.2632763 1.3248889,18.650803 C0.712429292,18.0383298 0.529223852,17.1172266 0.860701716,16.3170062 C1.19217958,15.5167857 1.97306117,14.9950394 2.83927641,14.9950588 C4.02138407,14.9964299 4.97932234,15.9543895 4.98066698,17.1364972 Z M13.4483773,17.1364972 L13.4483773,17.1365541 C13.4483773,18.3192693 12.4895972,19.2780494 11.306882,19.2780494 C10.1241668,19.2780494 9.16538664,18.3192693 9.16538664,17.1365541 C9.16538664,15.9538389 10.1241668,14.9950588 11.3069388,14.9950588 C12.4890652,14.9964035 13.4470326,15.9543709 13.4483773,17.1364972 Z M19.7746002,4.98206809 L19.7745444,4.98206812 C18.5918354,4.98204169 17.6330793,4.02324987 17.6330969,2.84054089 C17.6331145,1.65783191 18.5918992,0.699068654 19.7746082,0.699077462 C20.9573172,0.69908627 21.9160876,1.65786381 21.9160875,2.84062855 C21.9147691,4.02278508 20.9567567,4.98077607 19.7746002,4.98206809 Z" id="Shape"></path>
                            </g>
                        </g>
                    </g>
                </g>
            </g>
        </g>
    </g>
</svg>